<?xml version="1.0" standalone="no"?>
<!DOCTYPE svg PUBLIC "-//W3C//DTD SVG 1.1//EN" "http://www.w3.org/Graphics/SVG/1.1/DTD/svg11.dtd" >
<svg xmlns="http://www.w3.org/2000/svg">
<metadata>Generated by IcoMoon</metadata>
<defs>
<font id="icomoon" horiz-adv-x="1024">
<font-face units-per-em="1024" ascent="960" descent="-64" />
<missing-glyph horiz-adv-x="1024" />
<glyph unicode="&#x20;" horiz-adv-x="512" d="" />
<glyph unicode="&#xe900;" glyph-name="alert-circle" d="M981.333 426.667c0 129.579-52.565 246.997-137.472 331.861s-202.283 137.472-331.861 137.472-246.997-52.565-331.861-137.472-137.472-202.283-137.472-331.861 52.565-246.997 137.472-331.861 202.283-137.472 331.861-137.472 246.997 52.565 331.861 137.472 137.472 202.283 137.472 331.861zM896 426.667c0-106.069-42.923-201.984-112.469-271.531s-165.461-112.469-271.531-112.469-201.984 42.923-271.531 112.469-112.469 165.461-112.469 271.531 42.923 201.984 112.469 271.531 165.461 112.469 271.531 112.469 201.984-42.923 271.531-112.469 112.469-165.461 112.469-271.531zM469.333 597.334v-170.667c0-23.552 19.115-42.667 42.667-42.667s42.667 19.115 42.667 42.667v170.667c0 23.552-19.115 42.667-42.667 42.667s-42.667-19.115-42.667-42.667zM512 213.334c23.552 0 42.667 19.115 42.667 42.667s-19.115 42.667-42.667 42.667-42.667-19.115-42.667-42.667 19.115-42.667 42.667-42.667z" />
<glyph unicode="&#xe901;" glyph-name="alert-triangle" d="M475.648 752.043c3.115 5.248 7.893 10.325 14.251 14.165 10.069 6.101 21.589 7.595 32.256 4.949s20.224-9.216 26.197-19.115l361.216-603.008c2.987-5.12 5.077-11.435 5.461-18.517-0.64-15.701-5.077-25.216-12.075-32.384-7.68-7.851-18.219-12.715-29.568-12.843l-722.645 0.043c-6.485 0.043-13.696 1.749-20.523 5.717-10.197 5.888-17.024 15.317-19.883 25.899s-1.621 22.144 3.925 31.787zM402.432 795.904l-361.387-603.307c-18.005-31.189-21.589-66.133-13.141-97.707s29.013-60.075 59.648-77.739c19.797-11.435 41.643-17.067 62.933-17.152h722.901c35.797 0.384 67.712 15.104 90.581 38.485s36.864 55.595 36.48 90.923c-0.256 22.869-6.528 44.544-17.323 62.891l-361.557 603.605c-18.432 30.421-47.36 50.389-79.104 58.155s-66.603 3.456-96.811-14.891c-18.304-11.093-33.067-26.24-43.179-43.264zM469.333 554.667v-170.667c0-23.552 19.115-42.667 42.667-42.667s42.667 19.115 42.667 42.667v170.667c0 23.552-19.115 42.667-42.667 42.667s-42.667-19.115-42.667-42.667zM512 170.667c23.552 0 42.667 19.115 42.667 42.667s-19.115 42.667-42.667 42.667-42.667-19.115-42.667-42.667 19.115-42.667 42.667-42.667z" />
<glyph unicode="&#xe902;" glyph-name="arrow-down-circle" d="M981.333 426.667c0 129.579-52.565 246.997-137.472 331.861s-202.283 137.472-331.861 137.472-246.997-52.565-331.861-137.472-137.472-202.283-137.472-331.861 52.565-246.997 137.472-331.861 202.283-137.472 331.861-137.472 246.997 52.565 331.861 137.472 137.472 202.283 137.472 331.861zM896 426.667c0-106.069-42.923-201.984-112.469-271.531s-165.461-112.469-271.531-112.469-201.984 42.923-271.531 112.469-112.469 165.461-112.469 271.531 42.923 201.984 112.469 271.531 165.461 112.469 271.531 112.469 201.984-42.923 271.531-112.469 112.469-165.461 112.469-271.531zM469.333 597.334v-238.336l-97.835 97.835c-16.683 16.683-43.691 16.683-60.331 0s-16.683-43.691 0-60.331l170.667-170.667c3.925-3.925 8.619-7.083 13.824-9.259 10.453-4.309 22.229-4.309 32.683 0 5.035 2.091 9.728 5.163 13.824 9.259l170.667 170.667c16.683 16.683 16.683 43.691 0 60.331s-43.691 16.683-60.331 0l-97.835-97.835v238.336c0 23.552-19.115 42.667-42.667 42.667s-42.667-19.115-42.667-42.667z" />
<glyph unicode="&#xe903;" glyph-name="arrow-down-left" d="M725.333 256h-323.669l353.835 353.835c16.683 16.683 16.683 43.691 0 60.331s-43.691 16.683-60.331 0l-353.835-353.835v323.669c0 23.552-19.115 42.667-42.667 42.667s-42.667-19.115-42.667-42.667v-426.667c0-23.552 19.115-42.667 42.667-42.667h426.667c23.552 0 42.667 19.115 42.667 42.667s-19.115 42.667-42.667 42.667z" />
<glyph unicode="&#xe904;" glyph-name="arrow-down-right" d="M682.667 640v-323.669l-353.835 353.835c-16.683 16.683-43.691 16.683-60.331 0s-16.683-43.691 0-60.331l353.835-353.835h-323.669c-23.552 0-42.667-19.115-42.667-42.667s19.115-42.667 42.667-42.667h426.667c5.803 0 11.307 1.152 16.341 3.243s9.728 5.163 13.824 9.259c3.925 3.925 7.083 8.619 9.259 13.824 2.091 5.035 3.243 10.539 3.243 16.341v426.667c0 23.552-19.115 42.667-42.667 42.667s-42.667-19.115-42.667-42.667z" />
<glyph unicode="&#xe905;" glyph-name="arrow-left-circle" d="M981.333 426.667c0 129.579-52.565 246.997-137.472 331.861s-202.283 137.472-331.861 137.472-246.997-52.565-331.861-137.472-137.472-202.283-137.472-331.861 52.565-246.997 137.472-331.861 202.283-137.472 331.861-137.472 246.997 52.565 331.861 137.472 137.472 202.283 137.472 331.861zM896 426.667c0-106.069-42.923-201.984-112.469-271.531s-165.461-112.469-271.531-112.469-201.984 42.923-271.531 112.469-112.469 165.461-112.469 271.531 42.923 201.984 112.469 271.531 165.461 112.469 271.531 112.469 201.984-42.923 271.531-112.469 112.469-165.461 112.469-271.531zM682.667 469.334h-238.336l97.835 97.835c16.683 16.683 16.683 43.691 0 60.331s-43.691 16.683-60.331 0l-170.667-170.667c-4.096-4.096-7.168-8.789-9.259-13.824-2.176-5.205-3.243-10.795-3.243-16.341 0-10.923 4.181-21.845 12.501-30.165l170.667-170.667c16.683-16.683 43.691-16.683 60.331 0s16.683 43.691 0 60.331l-97.835 97.835h238.336c23.552 0 42.667 19.115 42.667 42.667s-19.115 42.667-42.667 42.667z" />
<glyph unicode="&#xe906;" glyph-name="arrow-right-circle" d="M981.333 426.667c0 129.579-52.565 246.997-137.472 331.861s-202.283 137.472-331.861 137.472-246.997-52.565-331.861-137.472-137.472-202.283-137.472-331.861 52.565-246.997 137.472-331.861 202.283-137.472 331.861-137.472 246.997 52.565 331.861 137.472 137.472 202.283 137.472 331.861zM896 426.667c0-106.069-42.923-201.984-112.469-271.531s-165.461-112.469-271.531-112.469-201.984 42.923-271.531 112.469-112.469 165.461-112.469 271.531 42.923 201.984 112.469 271.531 165.461 112.469 271.531 112.469 201.984-42.923 271.531-112.469 112.469-165.461 112.469-271.531zM341.333 384h238.336l-97.835-97.835c-16.683-16.683-16.683-43.691 0-60.331s43.691-16.683 60.331 0l170.667 170.667c3.925 3.925 7.083 8.619 9.259 13.824 4.309 10.453 4.309 22.229 0 32.683-2.091 5.035-5.163 9.728-9.259 13.824l-170.667 170.667c-16.683 16.683-43.691 16.683-60.331 0s-16.683-43.691 0-60.331l97.835-97.835h-238.336c-23.552 0-42.667-19.115-42.667-42.667s19.115-42.667 42.667-42.667z" />
<glyph unicode="&#xe907;" glyph-name="arrow-up-circle" d="M981.333 426.667c0 129.579-52.565 246.997-137.472 331.861s-202.283 137.472-331.861 137.472-246.997-52.565-331.861-137.472-137.472-202.283-137.472-331.861 52.565-246.997 137.472-331.861 202.283-137.472 331.861-137.472 246.997 52.565 331.861 137.472 137.472 202.283 137.472 331.861zM896 426.667c0-106.069-42.923-201.984-112.469-271.531s-165.461-112.469-271.531-112.469-201.984 42.923-271.531 112.469-112.469 165.461-112.469 271.531 42.923 201.984 112.469 271.531 165.461 112.469 271.531 112.469 201.984-42.923 271.531-112.469 112.469-165.461 112.469-271.531zM554.667 256v238.336l97.835-97.835c16.683-16.683 43.691-16.683 60.331 0s16.683 43.691 0 60.331l-170.667 170.667c-4.096 4.096-8.789 7.168-13.824 9.259-5.205 2.176-10.795 3.243-16.341 3.243-10.923 0-21.845-4.181-30.165-12.501l-170.667-170.667c-16.683-16.683-16.683-43.691 0-60.331s43.691-16.683 60.331 0l97.835 97.835v-238.336c0-23.552 19.115-42.667 42.667-42.667s42.667 19.115 42.667 42.667z" />
<glyph unicode="&#xe908;" glyph-name="arrow-up-left" d="M341.333 213.334v323.669l353.835-353.835c16.683-16.683 43.691-16.683 60.331 0s16.683 43.691 0 60.331l-353.835 353.835h323.669c23.552 0 42.667 19.115 42.667 42.667s-19.115 42.667-42.667 42.667h-426.667c-23.552 0-42.667-19.115-42.667-42.667v-426.667c0-23.552 19.115-42.667 42.667-42.667s42.667 19.115 42.667 42.667z" />
<glyph unicode="&#xe909;" glyph-name="arrow-up-right" d="M298.667 597.334h323.669l-353.835-353.835c-16.683-16.683-16.683-43.691 0-60.331s43.691-16.683 60.331 0l353.835 353.835v-323.669c0-23.552 19.115-42.667 42.667-42.667s42.667 19.115 42.667 42.667v426.667c0 5.803-1.152 11.307-3.243 16.341s-5.163 9.728-9.216 13.781c-0.043 0.043-0.043 0.043-0.085 0.085-3.925 3.925-8.619 7.083-13.781 9.216-5.035 2.091-10.539 3.243-16.341 3.243h-426.667c-23.552 0-42.667-19.115-42.667-42.667s19.115-42.667 42.667-42.667z" />
<glyph unicode="&#xe90a;" glyph-name="at-sign" d="M640 426.667c0-35.371-14.293-67.285-37.504-90.496s-55.125-37.504-90.496-37.504-67.285 14.293-90.496 37.504-37.504 55.125-37.504 90.496 14.293 67.285 37.504 90.496 55.125 37.504 90.496 37.504 67.285-14.293 90.496-37.504 37.504-55.125 37.504-90.496zM671.573 285.099c5.547-7.765 11.691-15.061 18.389-21.76 30.848-30.848 73.6-50.005 120.704-50.005s89.856 19.157 120.661 50.005 50.005 73.557 50.005 120.661v42.667c0 129.579-52.608 246.997-137.472 331.861s-202.283 137.472-331.904 137.429-246.955-52.565-331.861-137.472-137.429-202.283-137.429-331.861 52.608-246.997 137.472-331.861 202.283-137.472 331.861-137.429c107.733 0 207.147 36.352 285.44 96.811 18.645 14.379 22.101 41.173 7.68 59.861s-41.173 22.101-59.861 7.68c-63.445-48.981-144.085-78.677-231.893-79.019-108.373 0.384-203.776 43.264-272.981 112.469-69.419 69.504-112.384 165.419-112.384 271.488s42.923 201.984 112.469 271.531 165.461 112.469 271.531 112.469 201.984-42.923 271.531-112.469 112.469-165.461 112.469-271.488v-42.667c0-23.595-9.515-44.843-25.003-60.331s-36.736-25.003-60.331-25.003-44.843 9.515-60.331 25.003-25.003 36.736-25.003 60.331v213.333c0 23.552-19.115 42.667-42.667 42.667s-42.667-19.115-42.667-42.667c-35.627 26.752-80 42.667-128 42.667-58.88 0-112.299-23.936-150.869-62.464s-62.464-91.989-62.464-150.869 23.936-112.299 62.464-150.869 91.989-62.464 150.869-62.464 112.299 23.936 150.869 62.464c2.987 2.987 5.931 6.101 8.747 9.259z" />
<glyph unicode="&#xe90b;" glyph-name="check" d="M823.168 712.832l-439.168-439.168-183.168 183.168c-16.683 16.683-43.691 16.683-60.331 0s-16.683-43.691 0-60.331l213.333-213.333c16.683-16.683 43.691-16.683 60.331 0l469.333 469.333c16.683 16.683 16.683 43.691 0 60.331s-43.691 16.683-60.331 0z" />
<glyph unicode="&#xe90c;" glyph-name="check-circle" d="M896 465.92v-39.253c-0.043-106.027-43.051-201.941-112.64-271.445s-165.547-112.384-271.573-112.299-201.984 43.051-271.445 112.64-112.384 165.504-112.341 271.573 43.051 201.941 112.64 271.445 165.547 112.384 271.573 112.341c56.747-0.043 110.336-12.331 155.691-33.067 21.419-9.813 46.763-0.341 56.533 21.077s0.341 46.763-21.077 56.533c-56.619 25.856-122.283 40.747-191.104 40.789-129.579 0.085-246.997-52.437-331.947-137.259s-137.557-202.24-137.643-331.819 52.437-246.997 137.259-331.947 202.197-137.6 331.776-137.643 246.997 52.437 331.947 137.259 137.6 202.197 137.685 331.819v39.253c0 23.552-19.115 42.667-42.667 42.667s-42.667-19.115-42.667-42.667zM908.501 798.166l-396.501-396.885-97.835 97.792c-16.683 16.683-43.691 16.683-60.331 0s-16.683-43.691 0-60.331l128-128c16.683-16.683 43.691-16.64 60.373 0l426.667 427.093c16.64 16.683 16.64 43.691-0.043 60.331s-43.691 16.64-60.331-0.043z" />
<glyph unicode="&#xe90d;" glyph-name="check-square" d="M353.835 439.168l128-128c16.683-16.683 43.691-16.683 60.331 0l426.667 426.667c16.683 16.683 16.683 43.691 0 60.331s-43.691 16.683-60.331 0l-396.501-396.501-97.835 97.835c-16.683 16.683-43.691 16.683-60.331 0s-16.683-43.691 0-60.331zM853.333 426.667v-298.667c0-11.776-4.736-22.4-12.501-30.165s-18.389-12.501-30.165-12.501h-597.333c-11.776 0-22.4 4.736-30.165 12.501s-12.501 18.389-12.501 30.165v597.333c0 11.776 4.736 22.4 12.501 30.165s18.389 12.501 30.165 12.501h469.333c23.552 0 42.667 19.115 42.667 42.667s-19.115 42.667-42.667 42.667h-469.333c-35.328 0-67.413-14.379-90.496-37.504s-37.504-55.168-37.504-90.496v-597.333c0-35.328 14.379-67.413 37.504-90.496s55.168-37.504 90.496-37.504h597.333c35.328 0 67.413 14.379 90.496 37.504s37.504 55.168 37.504 90.496v298.667c0 23.552-19.115 42.667-42.667 42.667s-42.667-19.115-42.667-42.667z" />
<glyph unicode="&#xe90e;" glyph-name="chevron-down" d="M225.835 524.502l256-256c16.683-16.683 43.691-16.683 60.331 0l256 256c16.683 16.683 16.683 43.691 0 60.331s-43.691 16.683-60.331 0l-225.835-225.835-225.835 225.835c-16.683 16.683-43.691 16.683-60.331 0s-16.683-43.691 0-60.331z" />
<glyph unicode="&#xe90f;" glyph-name="chevron-left" d="M670.165 200.832l-225.835 225.835 225.835 225.835c16.683 16.683 16.683 43.691 0 60.331s-43.691 16.683-60.331 0l-256-256c-16.683-16.683-16.683-43.691 0-60.331l256-256c16.683-16.683 43.691-16.683 60.331 0s16.683 43.691 0 60.331z" />
<glyph unicode="&#xe910;" glyph-name="chevron-right" d="M414.165 140.502l256 256c16.683 16.683 16.683 43.691 0 60.331l-256 256c-16.683 16.683-43.691 16.683-60.331 0s-16.683-43.691 0-60.331l225.835-225.835-225.835-225.835c-16.683-16.683-16.683-43.691 0-60.331s43.691-16.683 60.331 0z" />
<glyph unicode="&#xe911;" glyph-name="chevron-up" d="M798.165 328.832l-256 256c-16.683 16.683-43.691 16.683-60.331 0l-256-256c-16.683-16.683-16.683-43.691 0-60.331s43.691-16.683 60.331 0l225.835 225.835 225.835-225.835c16.683-16.683 43.691-16.683 60.331 0s16.683 43.691 0 60.331z" />
<glyph unicode="&#xe912;" glyph-name="circle" d="M981.333 426.667c0 129.579-52.565 246.997-137.472 331.861s-202.283 137.472-331.861 137.472-246.997-52.565-331.861-137.472-137.472-202.283-137.472-331.861 52.565-246.997 137.472-331.861 202.283-137.472 331.861-137.472 246.997 52.565 331.861 137.472 137.472 202.283 137.472 331.861zM896 426.667c0-106.069-42.923-201.984-112.469-271.531s-165.461-112.469-271.531-112.469-201.984 42.923-271.531 112.469-112.469 165.461-112.469 271.531 42.923 201.984 112.469 271.531 165.461 112.469 271.531 112.469 201.984-42.923 271.531-112.469 112.469-165.461 112.469-271.531z" />
<glyph unicode="&#xe913;" glyph-name="copy" d="M469.333 597.334c-35.328 0-67.413-14.379-90.496-37.504s-37.504-55.168-37.504-90.496v-384c0-35.328 14.379-67.413 37.504-90.496s55.168-37.504 90.496-37.504h384c35.328 0 67.413 14.379 90.496 37.504s37.504 55.168 37.504 90.496v384c0 35.328-14.379 67.413-37.504 90.496s-55.168 37.504-90.496 37.504zM469.333 512h384c11.776 0 22.4-4.736 30.165-12.501s12.501-18.389 12.501-30.165v-384c0-11.776-4.736-22.4-12.501-30.165s-18.389-12.501-30.165-12.501h-384c-11.776 0-22.4 4.736-30.165 12.501s-12.501 18.389-12.501 30.165v384c0 11.776 4.736 22.4 12.501 30.165s18.389 12.501 30.165 12.501zM213.333 341.334h-42.667c-11.776 0-22.4 4.736-30.165 12.501s-12.501 18.389-12.501 30.165v384c0 11.776 4.736 22.4 12.501 30.165s18.389 12.501 30.165 12.501h384c11.776 0 22.4-4.736 30.165-12.501s12.501-18.389 12.501-30.165v-42.667c0-23.552 19.115-42.667 42.667-42.667s42.667 19.115 42.667 42.667v42.667c0 35.328-14.379 67.413-37.504 90.496s-55.168 37.504-90.496 37.504h-384c-35.328 0-67.413-14.379-90.496-37.504s-37.504-55.168-37.504-90.496v-384c0-35.328 14.379-67.413 37.504-90.496s55.168-37.504 90.496-37.504h42.667c23.552 0 42.667 19.115 42.667 42.667s-19.115 42.667-42.667 42.667z" />
<glyph unicode="&#xe914;" glyph-name="corner-down-left" d="M810.667 768v-298.667c0-35.371-14.293-67.285-37.504-90.496s-55.125-37.504-90.496-37.504h-409.003l140.501 140.501c16.683 16.683 16.683 43.691 0 60.331s-43.691 16.683-60.331 0l-213.333-213.333c-3.925-3.925-7.083-8.619-9.259-13.824-6.4-15.445-3.328-33.92 9.259-46.507l213.333-213.333c16.683-16.683 43.691-16.683 60.331 0s16.683 43.691 0 60.331l-140.501 140.501h409.003c58.88 0 112.299 23.936 150.869 62.464s62.464 91.989 62.464 150.869v298.667c0 23.552-19.115 42.667-42.667 42.667s-42.667-19.115-42.667-42.667z" />
<glyph unicode="&#xe915;" glyph-name="corner-down-right" d="M128 768v-298.667c0-58.88 23.936-112.299 62.464-150.869s91.989-62.464 150.869-62.464h409.003l-140.501-140.501c-16.683-16.683-16.683-43.691 0-60.331s43.691-16.683 60.331 0l213.333 213.333c3.925 3.925 7.083 8.619 9.259 13.824 6.4 15.445 3.328 33.92-9.259 46.507l-213.333 213.333c-16.683 16.683-43.691 16.683-60.331 0s-16.683-43.691 0-60.331l140.501-140.501h-409.003c-35.371 0-67.285 14.293-90.496 37.504s-37.504 55.125-37.504 90.496v298.667c0 23.552-19.115 42.667-42.667 42.667s-42.667-19.115-42.667-42.667z" />
<glyph unicode="&#xe916;" glyph-name="corner-left-down" d="M853.333 810.667h-298.667c-58.88 0-112.299-23.936-150.869-62.464s-62.464-91.989-62.464-150.869v-409.003l-140.501 140.501c-16.683 16.683-43.691 16.683-60.331 0s-16.683-43.691 0-60.331l213.333-213.333c3.925-3.925 8.619-7.083 13.824-9.259 10.453-4.309 22.229-4.309 32.683 0 5.035 2.091 9.728 5.163 13.824 9.259l213.333 213.333c16.683 16.683 16.683 43.691 0 60.331s-43.691 16.683-60.331 0l-140.501-140.501v409.003c0 35.371 14.293 67.285 37.504 90.496s55.125 37.504 90.496 37.504h298.667c23.552 0 42.667 19.115 42.667 42.667s-19.115 42.667-42.667 42.667z" />
<glyph unicode="&#xe917;" glyph-name="corner-left-up" d="M853.333 128h-298.667c-35.371 0-67.285 14.293-90.496 37.504s-37.504 55.125-37.504 90.496v409.003l140.501-140.501c16.683-16.683 43.691-16.683 60.331 0s16.683 43.691 0 60.331l-213.333 213.333c-4.096 4.096-8.789 7.168-13.824 9.259s-10.539 3.243-16.341 3.243-11.307-1.152-16.341-3.243c-5.035-2.091-9.728-5.163-13.824-9.259l-213.333-213.333c-16.683-16.683-16.683-43.691 0-60.331s43.691-16.683 60.331 0l140.501 140.501v-409.003c0-58.88 23.936-112.299 62.464-150.869s91.989-62.464 150.869-62.464h298.667c23.552 0 42.667 19.115 42.667 42.667s-19.115 42.667-42.667 42.667z" />
<glyph unicode="&#xe918;" glyph-name="corner-right-down" d="M170.667 725.334h298.667c35.371 0 67.285-14.293 90.496-37.504s37.504-55.125 37.504-90.496v-409.003l-140.501 140.501c-16.683 16.683-43.691 16.683-60.331 0s-16.683-43.691 0-60.331l213.333-213.333c3.925-3.925 8.619-7.083 13.824-9.259 10.453-4.309 22.229-4.309 32.683 0 5.035 2.091 9.728 5.163 13.824 9.259l213.333 213.333c16.683 16.683 16.683 43.691 0 60.331s-43.691 16.683-60.331 0l-140.501-140.501v409.003c0 58.88-23.936 112.299-62.464 150.869s-91.989 62.464-150.869 62.464h-298.667c-23.552 0-42.667-19.115-42.667-42.667s19.115-42.667 42.667-42.667z" />
<glyph unicode="&#xe919;" glyph-name="corner-right-up" d="M170.667 42.667h298.667c58.88 0 112.299 23.936 150.869 62.464s62.464 91.989 62.464 150.869v409.003l140.501-140.501c16.683-16.683 43.691-16.683 60.331 0s16.683 43.691 0 60.331l-213.333 213.333c-3.925 3.925-8.619 7.083-13.824 9.259-15.445 6.4-33.92 3.328-46.507-9.259l-213.333-213.333c-16.683-16.683-16.683-43.691 0-60.331s43.691-16.683 60.331 0l140.501 140.501v-409.003c0-35.371-14.293-67.285-37.504-90.496s-55.125-37.504-90.496-37.504h-298.667c-23.552 0-42.667-19.115-42.667-42.667s19.115-42.667 42.667-42.667z" />
<glyph unicode="&#xe91a;" glyph-name="corner-up-left" d="M896 85.334v298.667c0 58.88-23.936 112.299-62.464 150.869s-91.989 62.464-150.869 62.464h-409.003l140.501 140.501c16.683 16.683 16.683 43.691 0 60.331s-43.691 16.683-60.331 0l-213.333-213.333c-4.096-4.096-7.168-8.789-9.259-13.824s-3.243-10.539-3.243-16.341 1.152-11.307 3.243-16.341c2.091-5.035 5.163-9.728 9.259-13.824l213.333-213.333c16.683-16.683 43.691-16.683 60.331 0s16.683 43.691 0 60.331l-140.501 140.501h409.003c35.371 0 67.285-14.293 90.496-37.504s37.504-55.125 37.504-90.496v-298.667c0-23.552 19.115-42.667 42.667-42.667s42.667 19.115 42.667 42.667z" />
<glyph unicode="&#xe91b;" glyph-name="corner-up-right" d="M213.333 85.334v298.667c0 35.371 14.293 67.285 37.504 90.496s55.125 37.504 90.496 37.504h409.003l-140.501-140.501c-16.683-16.683-16.683-43.691 0-60.331s43.691-16.683 60.331 0l213.333 213.333c3.925 3.925 7.083 8.619 9.259 13.824 4.309 10.453 4.309 22.229 0 32.683-2.091 5.035-5.163 9.728-9.259 13.824l-213.333 213.333c-16.683 16.683-43.691 16.683-60.331 0s-16.683-43.691 0-60.331l140.501-140.501h-409.003c-58.88 0-112.299-23.936-150.869-62.464s-62.464-91.989-62.464-150.869v-298.667c0-23.552 19.115-42.667 42.667-42.667s42.667 19.115 42.667 42.667z" />
<glyph unicode="&#xe91c;" glyph-name="crop" d="M301.952 636.715l381.099 3.285c11.435 0 22.016-4.736 29.781-12.501s12.501-18.389 12.501-30.165v-384h-384c-11.776 0-22.4 4.736-30.165 12.501s-12.501 18.389-12.501 29.781zM43.051 634.454l173.568 1.493-3.285-379.563c0-35.712 14.379-67.755 37.504-90.88s55.168-37.504 90.496-37.504h384v-170.667c0-23.552 19.115-42.667 42.667-42.667s42.667 19.115 42.667 42.667v170.667h170.667c23.552 0 42.667 19.115 42.667 42.667s-19.115 42.667-42.667 42.667h-170.667v384c0 35.328-14.379 67.413-37.504 90.496s-55.168 37.504-90.88 37.504l-379.563-3.285 1.493 173.568c0.213 23.595-18.731 42.837-42.283 43.051s-42.837-18.731-43.051-42.283l-1.536-175.061-175.061-1.536c-23.552-0.213-42.496-19.456-42.283-43.051s19.456-42.496 43.051-42.283z" />
<glyph unicode="&#xe91d;" glyph-name="edit" d="M469.333 810.667h-298.667c-35.328 0-67.413-14.379-90.496-37.504s-37.504-55.168-37.504-90.496v-597.333c0-35.328 14.379-67.413 37.504-90.496s55.168-37.504 90.496-37.504h597.333c35.328 0 67.413 14.379 90.496 37.504s37.504 55.168 37.504 90.496v298.667c0 23.552-19.115 42.667-42.667 42.667s-42.667-19.115-42.667-42.667v-298.667c0-11.776-4.736-22.4-12.501-30.165s-18.389-12.501-30.165-12.501h-597.333c-11.776 0-22.4 4.736-30.165 12.501s-12.501 18.389-12.501 30.165v597.333c0 11.776 4.736 22.4 12.501 30.165s18.389 12.501 30.165 12.501h298.667c23.552 0 42.667 19.115 42.667 42.667s-19.115 42.667-42.667 42.667zM759.168 862.166l-405.333-405.333c-5.205-5.163-9.259-11.947-11.221-19.84l-42.667-170.667c-1.664-6.4-1.792-13.568 0-20.693 5.717-22.869 28.885-36.779 51.755-31.061l170.667 42.667c7.125 1.749 14.080 5.504 19.84 11.221l405.333 405.333c25.984 25.984 38.997 60.16 38.997 94.165s-13.013 68.181-38.997 94.165-60.203 39.040-94.208 39.040-68.181-13.013-94.165-38.997zM819.499 801.835c9.344 9.344 21.504 13.995 33.835 13.995s24.491-4.651 33.835-13.995 13.995-21.504 13.995-33.835-4.651-24.491-13.995-33.835l-396.971-396.971-90.197-22.571 22.571 90.197z" />
<glyph unicode="&#xe91e;" glyph-name="edit-2" d="M695.168 840.832l-576-576c-4.992-4.949-8.96-11.435-11.008-18.944l-64-234.667c-1.963-6.955-2.091-14.763 0-22.443 6.187-22.741 29.653-36.139 52.395-29.952l234.667 64c6.784 1.792 13.44 5.504 18.944 11.008l576 576c31.872 31.872 47.829 73.771 47.829 115.499s-15.957 83.627-47.829 115.499-73.771 47.829-115.499 47.829-83.627-15.957-115.499-47.829zM755.499 780.502c15.232 15.232 35.157 22.827 55.168 22.827s39.936-7.595 55.168-22.869 22.827-35.115 22.827-55.125-7.595-39.936-22.827-55.168l-567.979-567.979-151.723-41.387 41.387 151.68z" />
<glyph unicode="&#xe91f;" glyph-name="external-link" d="M725.333 384v-256c0-11.776-4.736-22.4-12.501-30.165s-18.389-12.501-30.165-12.501h-469.333c-11.776 0-22.4 4.736-30.165 12.501s-12.501 18.389-12.501 30.165v469.333c0 11.776 4.736 22.4 12.501 30.165s18.389 12.501 30.165 12.501h256c23.552 0 42.667 19.115 42.667 42.667s-19.115 42.667-42.667 42.667h-256c-35.328 0-67.413-14.379-90.496-37.504s-37.504-55.168-37.504-90.496v-469.333c0-35.328 14.379-67.413 37.504-90.496s55.168-37.504 90.496-37.504h469.333c35.328 0 67.413 14.379 90.496 37.504s37.504 55.168 37.504 90.496v256c0 23.552-19.115 42.667-42.667 42.667s-42.667-19.115-42.667-42.667zM456.832 311.168l396.501 396.501v-153.003c0-23.552 19.115-42.667 42.667-42.667s42.667 19.115 42.667 42.667v256c0 5.803-1.152 11.307-3.243 16.341s-5.163 9.728-9.216 13.781c-0.043 0.043-0.043 0.043-0.085 0.085-3.925 3.925-8.619 7.083-13.781 9.216-5.035 2.091-10.539 3.243-16.341 3.243h-256c-23.552 0-42.667-19.115-42.667-42.667s19.115-42.667 42.667-42.667h153.003l-396.501-396.501c-16.683-16.683-16.683-43.691 0-60.331s43.691-16.683 60.331 0z" />
<glyph unicode="&#xe920;" glyph-name="help-circle" d="M981.333 426.667c0 129.579-52.565 246.997-137.472 331.861s-202.283 137.472-331.861 137.472-246.997-52.565-331.861-137.472-137.472-202.283-137.472-331.861 52.565-246.997 137.472-331.861 202.283-137.472 331.861-137.472 246.997 52.565 331.861 137.472 137.472 202.283 137.472 331.861zM896 426.667c0-106.069-42.923-201.984-112.469-271.531s-165.461-112.469-271.531-112.469-201.984 42.923-271.531 112.469-112.469 165.461-112.469 271.531 42.923 201.984 112.469 271.531 165.461 112.469 271.531 112.469 201.984-42.923 271.531-112.469 112.469-165.461 112.469-271.531zM428.075 540.502c7.808 22.229 23.851 39.168 43.605 48.64s42.965 11.392 65.195 3.541c19.541-6.869 34.944-20.053 44.8-36.651 7.808-13.099 12.117-28.373 12.203-44.245 0-6.613-1.664-13.184-4.992-19.797-3.413-6.827-8.661-13.867-15.701-20.907-30.251-30.251-78.123-46.592-78.123-46.592-22.357-7.467-34.432-31.616-26.965-53.973s31.616-34.432 53.973-26.965c0 0 65.877 21.589 111.488 67.2 11.904 11.904 23.253 26.197 31.701 43.093 8.533 17.067 13.995 36.608 13.995 58.411-0.171 31.189-8.704 61.312-24.192 87.424-19.755 33.195-50.773 59.819-89.813 73.557-44.459 15.616-91.093 11.733-130.432-7.125s-71.595-52.821-87.211-97.28c-7.851-22.229 3.84-46.592 26.069-54.4s46.592 3.883 54.4 26.069zM512 170.667c23.552 0 42.667 19.115 42.667 42.667s-19.115 42.667-42.667 42.667-42.667-19.115-42.667-42.667 19.115-42.667 42.667-42.667z" />
<glyph unicode="&#xe921;" glyph-name="image" d="M213.333 853.334c-35.328 0-67.413-14.379-90.496-37.504s-37.504-55.168-37.504-90.496v-597.333c0-35.328 14.379-67.413 37.504-90.496s55.168-37.504 90.496-37.504h597.333c35.328 0 67.413 14.379 90.496 37.504s37.504 55.168 37.504 90.496v597.333c0 35.328-14.379 67.413-37.504 90.496s-55.168 37.504-90.496 37.504zM469.333 576c0 29.44-11.989 56.149-31.232 75.435s-45.995 31.232-75.435 31.232-56.149-11.989-75.435-31.232-31.232-45.995-31.232-75.435 11.989-56.149 31.232-75.435 45.995-31.232 75.435-31.232 56.149 11.989 75.435 31.232 31.232 45.995 31.232 75.435zM384 576c0-5.888-2.347-11.179-6.229-15.104s-9.216-6.229-15.104-6.229-11.179 2.347-15.104 6.229-6.229 9.216-6.229 15.104 2.347 11.179 6.229 15.104 9.216 6.229 15.104 6.229 11.179-2.347 15.104-6.229 6.229-9.216 6.229-15.104zM316.331 85.334l366.336 366.336 170.667-170.667v-153.003c0-11.776-4.736-22.4-12.501-30.165s-18.389-12.501-30.165-12.501zM853.333 401.664l-140.501 140.501c-16.683 16.683-43.691 16.683-60.331 0l-454.144-454.144c-5.76 2.133-10.88 5.504-15.189 9.813-7.765 7.765-12.501 18.389-12.501 30.165v597.333c0 11.776 4.736 22.4 12.501 30.165s18.389 12.501 30.165 12.501h597.333c11.776 0 22.4-4.736 30.165-12.501s12.501-18.389 12.501-30.165z" />
<glyph unicode="&#xe922;" glyph-name="info" d="M981.333 426.667c0 129.579-52.565 246.997-137.472 331.861s-202.283 137.472-331.861 137.472-246.997-52.565-331.861-137.472-137.472-202.283-137.472-331.861 52.565-246.997 137.472-331.861 202.283-137.472 331.861-137.472 246.997 52.565 331.861 137.472 137.472 202.283 137.472 331.861zM896 426.667c0-106.069-42.923-201.984-112.469-271.531s-165.461-112.469-271.531-112.469-201.984 42.923-271.531 112.469-112.469 165.461-112.469 271.531 42.923 201.984 112.469 271.531 165.461 112.469 271.531 112.469 201.984-42.923 271.531-112.469 112.469-165.461 112.469-271.531zM554.667 256v170.667c0 23.552-19.115 42.667-42.667 42.667s-42.667-19.115-42.667-42.667v-170.667c0-23.552 19.115-42.667 42.667-42.667s42.667 19.115 42.667 42.667zM512 554.667c23.552 0 42.667 19.115 42.667 42.667s-19.115 42.667-42.667 42.667-42.667-19.115-42.667-42.667 19.115-42.667 42.667-42.667z" />
<glyph unicode="&#xe923;" glyph-name="instagram" d="M298.667 896c-70.699 0-134.741-28.715-181.035-74.965s-74.965-110.336-74.965-181.035v-426.667c0-70.699 28.715-134.741 74.965-181.035s110.336-74.965 181.035-74.965h426.667c70.699 0 134.741 28.715 181.035 74.965s74.965 110.336 74.965 181.035v426.667c0 70.699-28.715 134.741-74.965 181.035s-110.336 74.965-181.035 74.965zM298.667 810.667h426.667c47.147 0 89.728-19.072 120.661-50.005s50.005-73.515 50.005-120.661v-426.667c0-47.147-19.072-89.728-50.005-120.661s-73.515-50.005-120.661-50.005h-426.667c-47.147 0-89.728 19.072-120.661 50.005s-50.005 73.515-50.005 120.661v426.667c0 47.147 19.072 89.728 50.005 120.661s73.515 50.005 120.661 50.005zM724.864 459.819c-6.4 41.472-24.363 79.232-50.944 109.525-32.171 36.736-76.971 62.507-128.384 70.144-19.797 3.157-41.387 3.285-63.019 0.085-58.283-8.619-107.563-40.149-140.032-83.925s-48.341-100.139-39.68-158.379 40.149-107.563 83.925-140.032 100.139-48.341 158.379-39.68 107.563 40.149 140.032 83.925 48.341 100.139 39.68 158.379zM640.469 447.275c5.205-34.987-4.267-68.651-23.808-95.019s-49.067-45.184-84.011-50.347-68.651 4.267-95.019 23.808-45.184 49.067-50.347 84.011 4.267 68.651 23.808 95.019 49.067 45.184 84.011 50.347c13.355 1.963 26.24 1.792 37.12 0.085 31.573-4.693 58.283-20.053 77.568-42.069 16-18.261 26.88-41.088 30.72-65.835zM746.667 618.667c23.552 0 42.667 19.115 42.667 42.667s-19.115 42.667-42.667 42.667-42.667-19.115-42.667-42.667 19.115-42.667 42.667-42.667z" />
<glyph unicode="&#xe924;" glyph-name="link" d="M392.491 358.443c42.325-56.619 103.68-90.709 168.448-100.053s133.248 6.059 189.867 48.384c10.197 7.637 19.84 16 27.947 24.235l127.787 127.787c49.621 51.371 73.472 117.376 72.363 182.827s-27.264 130.603-78.123 179.669c-50.005 48.299-114.688 72.192-179.157 71.808-63.659-0.341-127.317-24.363-176.512-71.808l-73.856-73.429c-16.725-16.597-16.811-43.648-0.171-60.331s43.648-16.811 60.331-0.171l72.917 72.491c32.853 31.659 75.221 47.659 117.76 47.915 43.051 0.256 86.016-15.659 119.381-47.872 33.92-32.768 51.328-76.075 52.096-119.808s-15.147-87.637-47.36-121.003l-128.213-128.213c-4.864-4.949-11.221-10.539-18.261-15.787-37.76-28.245-83.285-38.485-126.592-32.256s-84.096 28.928-112.299 66.688c-14.123 18.859-40.832 22.741-59.733 8.619s-22.741-40.832-8.619-59.733zM631.509 494.891c-42.325 56.619-103.68 90.709-168.448 100.053s-133.291-6.059-189.909-48.384c-10.197-7.637-19.797-16-27.947-24.235l-127.787-127.787c-49.621-51.371-73.472-117.376-72.363-182.827s27.264-130.603 78.123-179.669c50.005-48.299 114.688-72.192 179.157-71.808 63.659 0.341 127.317 24.363 176.512 71.808l73.515 73.515c16.683 16.683 16.683 43.691 0 60.331s-43.691 16.683-60.331 0l-72.363-72.448c-32.853-31.659-75.221-47.659-117.76-47.915-43.051-0.256-86.016 15.659-119.381 47.872-33.92 32.768-51.328 76.075-52.096 119.808s15.147 87.637 47.36 121.003l128.213 128.213c4.864 4.949 11.221 10.539 18.261 15.787 37.76 28.245 83.285 38.485 126.592 32.256s84.096-28.928 112.299-66.688c14.123-18.859 40.832-22.741 59.733-8.619s22.741 40.832 8.619 59.733z" />
<glyph unicode="&#xe925;" glyph-name="maximize-2" d="M793.003 768l-225.835-225.835c-16.683-16.683-16.683-43.691 0-60.331s43.691-16.683 60.331 0l225.835 225.835v-153.003c0-23.552 19.115-42.667 42.667-42.667s42.667 19.115 42.667 42.667v256c0 5.803-1.152 11.307-3.243 16.341s-5.163 9.728-9.216 13.781c-0.043 0.043-0.043 0.043-0.085 0.085-3.925 3.925-8.619 7.083-13.781 9.216-5.035 2.091-10.539 3.243-16.341 3.243h-256c-23.552 0-42.667-19.115-42.667-42.667s19.115-42.667 42.667-42.667zM230.997 85.334l225.835 225.835c16.683 16.683 16.683 43.691 0 60.331s-43.691 16.683-60.331 0l-225.835-225.835v153.003c0 23.552-19.115 42.667-42.667 42.667s-42.667-19.115-42.667-42.667v-256c0-23.552 19.115-42.667 42.667-42.667h256c23.552 0 42.667 19.115 42.667 42.667s-19.115 42.667-42.667 42.667z" />
<glyph unicode="&#xe926;" glyph-name="minimize-2" d="M700.331 554.667l225.835 225.835c16.683 16.683 16.683 43.691 0 60.331s-43.691 16.683-60.331 0l-225.835-225.835v153.003c0 23.552-19.115 42.667-42.667 42.667s-42.667-19.115-42.667-42.667v-256c0-5.803 1.152-11.307 3.243-16.341s5.163-9.728 9.216-13.781c0.043-0.043 0.043-0.043 0.085-0.085 3.925-3.925 8.619-7.083 13.781-9.216 5.035-2.091 10.539-3.243 16.341-3.243h256c23.552 0 42.667 19.115 42.667 42.667s-19.115 42.667-42.667 42.667zM158.165 12.502l225.835 225.835v-153.003c0-23.552 19.115-42.667 42.667-42.667s42.667 19.115 42.667 42.667v256c0 5.803-1.152 11.307-3.243 16.341s-5.163 9.728-9.216 13.781c-0.043 0.043-0.043 0.043-0.085 0.085-4.096 4.053-8.789 7.125-13.781 9.216-5.035 2.091-10.539 3.243-16.341 3.243h-256c-23.552 0-42.667-19.115-42.667-42.667s19.115-42.667 42.667-42.667h153.003l-225.835-225.835c-16.683-16.683-16.683-43.691 0-60.331s43.691-16.683 60.331 0z" />
<glyph unicode="&#xe927;" glyph-name="minus-circle" d="M981.333 426.667c0 129.579-52.565 246.997-137.472 331.861s-202.283 137.472-331.861 137.472-246.997-52.565-331.861-137.472-137.472-202.283-137.472-331.861 52.565-246.997 137.472-331.861 202.283-137.472 331.861-137.472 246.997 52.565 331.861 137.472 137.472 202.283 137.472 331.861zM896 426.667c0-106.069-42.923-201.984-112.469-271.531s-165.461-112.469-271.531-112.469-201.984 42.923-271.531 112.469-112.469 165.461-112.469 271.531 42.923 201.984 112.469 271.531 165.461 112.469 271.531 112.469 201.984-42.923 271.531-112.469 112.469-165.461 112.469-271.531zM341.333 384h341.333c23.552 0 42.667 19.115 42.667 42.667s-19.115 42.667-42.667 42.667h-341.333c-23.552 0-42.667-19.115-42.667-42.667s19.115-42.667 42.667-42.667z" />
<glyph unicode="&#xe928;" glyph-name="minus-square" d="M213.333 853.334c-35.328 0-67.413-14.379-90.496-37.504s-37.504-55.168-37.504-90.496v-597.333c0-35.328 14.379-67.413 37.504-90.496s55.168-37.504 90.496-37.504h597.333c35.328 0 67.413 14.379 90.496 37.504s37.504 55.168 37.504 90.496v597.333c0 35.328-14.379 67.413-37.504 90.496s-55.168 37.504-90.496 37.504zM213.333 768h597.333c11.776 0 22.4-4.736 30.165-12.501s12.501-18.389 12.501-30.165v-597.333c0-11.776-4.736-22.4-12.501-30.165s-18.389-12.501-30.165-12.501h-597.333c-11.776 0-22.4 4.736-30.165 12.501s-12.501 18.389-12.501 30.165v597.333c0 11.776 4.736 22.4 12.501 30.165s18.389 12.501 30.165 12.501zM341.333 384h341.333c23.552 0 42.667 19.115 42.667 42.667s-19.115 42.667-42.667 42.667h-341.333c-23.552 0-42.667-19.115-42.667-42.667s19.115-42.667 42.667-42.667z" />
<glyph unicode="&#xe929;" glyph-name="package" d="M618.965 537.387l-106.965-61.867-297.003 171.819 107.136 61.227zM809.003 647.339l-104.789-60.629-296.277 170.88 82.517 47.147c4.779 2.731 9.899 4.48 15.147 5.291 9.301 1.451 18.987-0.128 27.904-5.291zM491.776-41.002c6.016-3.243 12.928-5.077 20.224-5.077 7.381 0 14.336 1.877 20.395 5.163 15.189 2.475 29.909 7.68 43.392 15.36l298.709 170.709c26.368 15.232 45.227 38.272 55.424 64.597 5.675 14.592 8.619 30.165 8.747 46.251v341.333c0 20.395-4.821 39.723-13.397 56.917-0.939 3.029-2.219 5.973-3.883 8.832-1.963 3.371-4.267 6.357-6.912 8.96-1.323 1.835-2.731 3.669-4.139 5.419-9.813 12.203-21.845 22.528-35.456 30.507l-299.051 170.88c-26.027 15.019-55.467 19.84-83.371 15.531-15.488-2.432-30.507-7.637-44.245-15.488l-136.491-77.995c-8.96-1.749-17.323-6.4-23.595-13.483l-138.624-79.232c-16.341-9.429-29.824-21.888-40.149-36.267-2.56-2.56-4.864-5.547-6.784-8.832-1.664-2.901-2.987-5.888-3.925-8.96-1.707-3.413-3.243-6.955-4.608-10.496-5.632-14.635-8.576-30.208-8.704-45.995v-341.632c0.043-30.293 10.581-58.155 28.331-80.128 9.813-12.203 21.845-22.528 35.456-30.507l299.051-170.88c13.824-7.979 28.587-13.099 43.605-15.445zM469.333 401.622v-340.949l-277.12 158.336c-4.736 2.773-8.832 6.315-12.16 10.453-5.931 7.339-9.387 16.469-9.387 26.539v318.379zM554.667 60.672v340.949l298.667 172.757v-318.379c-0.043-5.163-1.067-10.496-2.987-15.445-3.413-8.789-9.6-16.384-18.176-21.333z" />
<glyph unicode="&#xe92a;" glyph-name="plus" d="M213.333 384h256v-256c0-23.552 19.115-42.667 42.667-42.667s42.667 19.115 42.667 42.667v256h256c23.552 0 42.667 19.115 42.667 42.667s-19.115 42.667-42.667 42.667h-256v256c0 23.552-19.115 42.667-42.667 42.667s-42.667-19.115-42.667-42.667v-256h-256c-23.552 0-42.667-19.115-42.667-42.667s19.115-42.667 42.667-42.667z" />
<glyph unicode="&#xe92b;" glyph-name="plus-circle" d="M981.333 426.667c0 129.579-52.565 246.997-137.472 331.861s-202.283 137.472-331.861 137.472-246.997-52.565-331.861-137.472-137.472-202.283-137.472-331.861 52.565-246.997 137.472-331.861 202.283-137.472 331.861-137.472 246.997 52.565 331.861 137.472 137.472 202.283 137.472 331.861zM896 426.667c0-106.069-42.923-201.984-112.469-271.531s-165.461-112.469-271.531-112.469-201.984 42.923-271.531 112.469-112.469 165.461-112.469 271.531 42.923 201.984 112.469 271.531 165.461 112.469 271.531 112.469 201.984-42.923 271.531-112.469 112.469-165.461 112.469-271.531zM341.333 384h128v-128c0-23.552 19.115-42.667 42.667-42.667s42.667 19.115 42.667 42.667v128h128c23.552 0 42.667 19.115 42.667 42.667s-19.115 42.667-42.667 42.667h-128v128c0 23.552-19.115 42.667-42.667 42.667s-42.667-19.115-42.667-42.667v-128h-128c-23.552 0-42.667-19.115-42.667-42.667s19.115-42.667 42.667-42.667z" />
<glyph unicode="&#xe92c;" glyph-name="plus-square" d="M213.333 853.334c-35.328 0-67.413-14.379-90.496-37.504s-37.504-55.168-37.504-90.496v-597.333c0-35.328 14.379-67.413 37.504-90.496s55.168-37.504 90.496-37.504h597.333c35.328 0 67.413 14.379 90.496 37.504s37.504 55.168 37.504 90.496v597.333c0 35.328-14.379 67.413-37.504 90.496s-55.168 37.504-90.496 37.504zM213.333 768h597.333c11.776 0 22.4-4.736 30.165-12.501s12.501-18.389 12.501-30.165v-597.333c0-11.776-4.736-22.4-12.501-30.165s-18.389-12.501-30.165-12.501h-597.333c-11.776 0-22.4 4.736-30.165 12.501s-12.501 18.389-12.501 30.165v597.333c0 11.776 4.736 22.4 12.501 30.165s18.389 12.501 30.165 12.501zM341.333 384h128v-128c0-23.552 19.115-42.667 42.667-42.667s42.667 19.115 42.667 42.667v128h128c23.552 0 42.667 19.115 42.667 42.667s-19.115 42.667-42.667 42.667h-128v128c0 23.552-19.115 42.667-42.667 42.667s-42.667-19.115-42.667-42.667v-128h-128c-23.552 0-42.667-19.115-42.667-42.667s19.115-42.667 42.667-42.667z" />
<glyph unicode="&#xe92d;" glyph-name="refresh-ccw" d="M914.475 568.918c-39.296 111.061-119.979 195.712-218.453 242.731s-215.040 56.448-326.101 17.152c-62.805-22.229-117.419-57.771-159.744-100.864l-124.843-117.333v157.397c0 23.552-19.115 42.667-42.667 42.667s-42.667-19.115-42.667-42.667v-255.915c0-0.64 0-1.28 0.043-1.877 0.213-4.907 1.237-9.6 2.944-13.909 1.707-4.352 4.181-8.448 7.381-12.16 0.512-0.555 1.024-1.152 1.536-1.664 3.883-4.053 8.576-7.339 13.824-9.6 5.077-2.176 10.624-3.413 16.469-3.499 0.171 0 0.299 0 0.469 0h256c23.552 0 42.667 19.115 42.667 42.667s-19.115 42.624-42.667 42.624h-148.309l120.747 113.451c33.152 33.792 76.672 62.293 127.275 80.213 88.875 31.445 181.973 23.936 260.864-13.739s143.317-105.301 174.763-194.176c7.851-22.229 32.256-33.835 54.443-25.984s33.835 32.256 25.984 54.443zM873.6 298.667l-119.467-112.256c-67.584-67.627-154.88-100.949-242.304-100.949s-174.72 33.28-241.365 99.925c-37.973 37.973-64.981 82.389-80.341 127.189-7.68 22.272-31.915 34.133-54.229 26.496s-34.133-31.915-26.496-54.229c19.627-57.131 53.632-112.725 100.736-159.787 83.328-83.285 192.597-124.928 301.739-124.885s218.368 41.728 300.715 124.117l126.080 118.4v-157.355c0-23.552 19.115-42.667 42.667-42.667s42.667 19.115 42.667 42.667v255.915c0 0.64 0 1.28-0.043 1.877-0.213 4.907-1.237 9.6-2.944 13.909-1.707 4.352-4.181 8.448-7.381 12.16-0.512 0.555-1.024 1.152-1.536 1.664-3.883 4.053-8.576 7.339-13.824 9.6-5.077 2.176-10.624 3.413-16.469 3.499-0.171 0-0.299 0-0.469 0h-256c-23.552 0-42.667-19.115-42.667-42.667s19.115-42.667 42.667-42.667z" />
<glyph unicode="&#xe92e;" glyph-name="refresh-cw" d="M189.995 540.416c31.445 88.875 95.872 156.544 174.763 194.219s172.032 45.184 260.864 13.739c50.603-17.92 94.123-46.421 127.275-80.213l120.747-113.493h-148.309c-23.552 0-42.667-19.115-42.667-42.667s19.115-42.667 42.667-42.667h255.872c0.213 0 0.384 0 0.597 0 5.845 0.043 11.435 1.323 16.469 3.499 5.077 2.176 9.771 5.376 13.824 9.6 0.512 0.555 1.024 1.109 1.536 1.664 3.2 3.712 5.675 7.808 7.381 12.16s2.731 9.003 2.944 13.909c0.043 0.64 0.043 1.237 0.043 1.835v256c0 23.552-19.115 42.667-42.667 42.667s-42.667-19.115-42.667-42.667v-157.397l-124.843 117.291c-42.325 43.093-96.896 78.635-159.701 100.864-111.061 39.296-227.627 29.824-326.101-17.152s-179.157-131.669-218.453-242.731c-7.893-22.187 3.755-46.549 25.941-54.443s46.592 3.755 54.443 25.984zM85.333 242.688l126.080-118.485c82.304-82.389 191.573-124.075 300.715-124.117s218.411 41.6 301.739 124.885c47.104 47.104 81.109 102.699 100.736 159.787 7.68 22.272-4.181 46.549-26.496 54.229s-46.549-4.181-54.229-26.496c-15.403-44.8-42.368-89.216-80.341-127.189-66.688-66.645-153.984-99.925-241.365-99.925s-174.677 33.365-242.304 100.949l-119.467 112.341h148.267c23.552 0 42.667 19.115 42.667 42.667s-19.115 42.667-42.667 42.667h-255.872c-0.213 0-0.384 0-0.597 0-5.845-0.043-11.435-1.323-16.469-3.499-5.077-2.176-9.771-5.376-13.824-9.6-0.512-0.555-1.024-1.109-1.536-1.664-3.2-3.712-5.675-7.808-7.381-12.16s-2.731-9.003-2.944-13.909c-0.043-0.64-0.043-1.237-0.043-1.835v-256c0-23.552 19.115-42.667 42.667-42.667s42.667 19.115 42.667 42.667z" />
<glyph unicode="&#xe92f;" glyph-name="repeat" d="M170.667 469.334v85.333c0 35.371 14.293 67.285 37.504 90.496s55.125 37.504 90.496 37.504h494.336l-97.835-97.835c-16.683-16.683-16.683-43.691 0-60.331s43.691-16.683 60.331 0l170.667 170.667c4.096 4.096 7.168 8.789 9.259 13.824s3.243 10.539 3.243 16.341c0 5.547-1.067 11.136-3.243 16.341-2.091 5.035-5.163 9.728-9.259 13.824l-170.667 170.667c-16.683 16.683-43.691 16.683-60.331 0s-16.683-43.691 0-60.331l97.835-97.835h-494.336c-58.88 0-112.299-23.936-150.869-62.464s-62.464-91.989-62.464-150.869v-85.333c0-23.552 19.115-42.667 42.667-42.667s42.667 19.115 42.667 42.667zM853.333 384v-85.333c0-35.371-14.293-67.285-37.504-90.496s-55.125-37.504-90.496-37.504h-494.336l97.835 97.835c16.683 16.683 16.683 43.691 0 60.331s-43.691 16.683-60.331 0l-170.667-170.667c-3.925-3.925-7.083-8.619-9.259-13.824s-3.243-10.795-3.243-16.341c0-10.923 4.181-21.845 12.501-30.165l170.667-170.667c16.683-16.683 43.691-16.683 60.331 0s16.683 43.691 0 60.331l-97.835 97.835h494.336c58.88 0 112.299 23.936 150.869 62.464s62.464 91.989 62.464 150.869v85.333c0 23.552-19.115 42.667-42.667 42.667s-42.667-19.115-42.667-42.667z" />
<glyph unicode="&#xe930;" glyph-name="square" d="M213.333 853.334c-35.328 0-67.413-14.379-90.496-37.504s-37.504-55.168-37.504-90.496v-597.333c0-35.328 14.379-67.413 37.504-90.496s55.168-37.504 90.496-37.504h597.333c35.328 0 67.413 14.379 90.496 37.504s37.504 55.168 37.504 90.496v597.333c0 35.328-14.379 67.413-37.504 90.496s-55.168 37.504-90.496 37.504zM213.333 768h597.333c11.776 0 22.4-4.736 30.165-12.501s12.501-18.389 12.501-30.165v-597.333c0-11.776-4.736-22.4-12.501-30.165s-18.389-12.501-30.165-12.501h-597.333c-11.776 0-22.4 4.736-30.165 12.501s-12.501 18.389-12.501 30.165v597.333c0 11.776 4.736 22.4 12.501 30.165s18.389 12.501 30.165 12.501z" />
<glyph unicode="&#xe931;" glyph-name="tool" d="M657.365 640.299l160.853 160.256c3.456 3.371 6.485 7.68 8.747 12.629 9.685 21.504 0.085 46.763-21.376 56.405-11.221 5.035-22.699 9.387-34.432 13.056-67.499 20.992-142.507 18.261-211.755-13.099-75.136-34.005-129.408-95.317-156.331-166.784-23.637-62.592-26.325-133.291-3.712-200.405l-275.072-275.072c-25.984-25.984-38.997-60.16-38.997-94.165s13.013-68.181 38.997-94.165 60.16-38.997 94.165-38.997 68.181 13.013 94.165 38.997l275.115 275.115c2.133-0.725 4.267-1.408 6.443-2.091 67.499-20.992 142.507-18.261 211.755 13.099 75.136 34.005 129.408 95.317 156.331 166.784s26.624 153.344-7.381 228.48c-1.92 4.395-4.864 8.747-8.704 12.587-16.683 16.683-43.691 16.683-60.331 0l-160.256-160.853zM596.736 699.734c-16.341-16.64-24.448-38.4-24.405-59.989 0.085-21.419 8.192-42.965 24.363-59.477l68.565-68.608c16.981-16.64 38.699-24.747 60.288-24.704 21.419 0.085 42.965 8.192 59.477 24.363l109.824 109.824c3.84-33.963-0.64-67.968-12.416-99.243-19.285-51.157-57.984-94.805-111.659-119.125-49.493-22.4-102.912-24.363-151.253-9.344-8.405 2.603-16.683 5.76-24.704 9.387-16.512 7.424-35.285 3.499-47.701-8.747l-294.827-294.827c-9.344-9.344-21.504-13.995-33.835-13.995s-24.491 4.651-33.835 13.995-13.995 21.504-13.995 33.835 4.651 24.491 13.995 33.835l294.827 294.827c12.843 12.843 15.787 31.829 8.704 47.744-24.277 53.675-24.533 112.043-5.248 163.2s57.984 94.805 111.659 119.125c36.352 16.469 74.88 21.888 111.915 17.621z" />
<glyph unicode="&#xe932;" glyph-name="x-circle" d="M981.333 426.667c0 129.579-52.565 246.997-137.472 331.861s-202.283 137.472-331.861 137.472-246.997-52.565-331.861-137.472-137.472-202.283-137.472-331.861 52.565-246.997 137.472-331.861 202.283-137.472 331.861-137.472 246.997 52.565 331.861 137.472 137.472 202.283 137.472 331.861zM896 426.667c0-106.069-42.923-201.984-112.469-271.531s-165.461-112.469-271.531-112.469-201.984 42.923-271.531 112.469-112.469 165.461-112.469 271.531 42.923 201.984 112.469 271.531 165.461 112.469 271.531 112.469 201.984-42.923 271.531-112.469 112.469-165.461 112.469-271.531zM353.835 524.502l97.835-97.835-97.835-97.835c-16.683-16.683-16.683-43.691 0-60.331s43.691-16.683 60.331 0l97.835 97.835 97.835-97.835c16.683-16.683 43.691-16.683 60.331 0s16.683 43.691 0 60.331l-97.835 97.835 97.835 97.835c16.683 16.683 16.683 43.691 0 60.331s-43.691 16.683-60.331 0l-97.835-97.835-97.835 97.835c-16.683 16.683-43.691 16.683-60.331 0s-16.683-43.691 0-60.331z" />
<glyph unicode="&#xe933;" glyph-name="zoom-in" d="M684.416 262.144c-1.451-1.109-2.859-2.347-4.224-3.712s-2.56-2.731-3.712-4.224c-53.675-51.755-126.677-83.541-207.147-83.541-82.475 0-157.099 33.365-211.2 87.467s-87.467 128.725-87.467 211.2 33.365 157.099 87.467 211.2 128.725 87.467 211.2 87.467 157.099-33.365 211.2-87.467 87.467-128.725 87.467-211.2c0-80.469-31.787-153.472-83.584-207.189zM926.165 72.832l-156.8 156.8c52.523 65.707 83.968 149.035 83.968 239.701 0 106.027-43.008 202.069-112.469 271.531s-165.504 112.469-271.531 112.469-202.069-43.008-271.531-112.469-112.469-165.504-112.469-271.531 43.008-202.069 112.469-271.531 165.504-112.469 271.531-112.469c90.667 0 173.995 31.445 239.701 83.968l156.8-156.8c16.683-16.683 43.691-16.683 60.331 0s16.683 43.691 0 60.331zM341.333 426.667h85.333v-85.333c0-23.552 19.115-42.667 42.667-42.667s42.667 19.115 42.667 42.667v85.333h85.333c23.552 0 42.667 19.115 42.667 42.667s-19.115 42.667-42.667 42.667h-85.333v85.333c0 23.552-19.115 42.667-42.667 42.667s-42.667-19.115-42.667-42.667v-85.333h-85.333c-23.552 0-42.667-19.115-42.667-42.667s19.115-42.667 42.667-42.667z" />
<glyph unicode="&#xe934;" glyph-name="zoom-out" d="M684.416 262.144c-1.451-1.109-2.859-2.347-4.224-3.712s-2.56-2.731-3.712-4.224c-53.675-51.755-126.677-83.541-207.147-83.541-82.475 0-157.099 33.365-211.2 87.467s-87.467 128.725-87.467 211.2 33.365 157.099 87.467 211.2 128.725 87.467 211.2 87.467 157.099-33.365 211.2-87.467 87.467-128.725 87.467-211.2c0-80.469-31.787-153.472-83.584-207.189zM926.165 72.832l-156.8 156.8c52.523 65.707 83.968 149.035 83.968 239.701 0 106.027-43.008 202.069-112.469 271.531s-165.504 112.469-271.531 112.469-202.069-43.008-271.531-112.469-112.469-165.504-112.469-271.531 43.008-202.069 112.469-271.531 165.504-112.469 271.531-112.469c90.667 0 173.995 31.445 239.701 83.968l156.8-156.8c16.683-16.683 43.691-16.683 60.331 0s16.683 43.691 0 60.331zM341.333 426.667h256c23.552 0 42.667 19.115 42.667 42.667s-19.115 42.667-42.667 42.667h-256c-23.552 0-42.667-19.115-42.667-42.667s19.115-42.667 42.667-42.667z" />
<glyph unicode="&#xe944;" glyph-name="Moon-Stars--Streamline-Solar-Ar" d="M874.688 453.728v0zM517.728 810.69v0zM882 448c0-204.344-165.656-370-370-370v-60c237.484 0 430 192.516 430 430h-60zM512 78c-204.345 0-370 165.656-370 370h-60c0-237.484 192.518-430 430-430v60zM142 448c0 204.345 165.655 370 370 370v60c-237.482 0-430-192.518-430-430h60zM652 358c-127.024 0-230 102.976-230 230h-60c0-160.164 129.836-290 290-290v60zM849.012 469.24c-40.324-66.732-113.484-111.24-197.012-111.24v-60c105.396 0 197.628 56.244 248.368 140.212l-51.356 31.028zM422 588c0 83.527 44.508 156.688 111.24 197.013l-31.028 51.353c-83.968-50.738-140.212-142.97-140.212-248.366h60zM512 818c-3.54 0-7.692 1.597-10.704 4.733-2.552 2.656-3.144 5.17-3.284 6.186-0.168 1.246-0.084 4.858 4.2 7.447l31.028-51.353c20.128 12.161 26.6 34.428 24.232 51.936-2.456 18.2-16.808 41.051-45.472 41.051v-60zM900.364 438.212c-2.588-4.284-6.2-4.368-7.444-4.2-1.016 0.14-3.532 0.732-6.188 3.284-3.136 3.012-4.732 7.164-4.732 10.704h60c0 28.664-22.852 43.016-41.052 45.472-17.508 2.368-39.776-4.104-51.936-24.232l51.352-31.028z" />
<glyph unicode="&#xe945;" glyph-name="Moon--Streamline-Solar-Ar" d="M874.688 453.728v0zM517.728 810.69v0zM882 448c0-204.344-165.656-370-370-370v-60c237.484 0 430 192.516 430 430h-60zM512 78c-204.345 0-370 165.656-370 370h-60c0-237.484 192.518-430 430-430v60zM142 448c0 204.345 165.655 370 370 370v60c-237.482 0-430-192.518-430-430h60zM652 358c-127.024 0-230 102.976-230 230h-60c0-160.164 129.836-290 290-290v60zM849.012 469.24c-40.324-66.732-113.484-111.24-197.012-111.24v-60c105.396 0 197.628 56.244 248.368 140.212l-51.356 31.028zM422 588c0 83.527 44.508 156.688 111.24 197.013l-31.028 51.353c-83.968-50.738-140.212-142.97-140.212-248.366h60zM512 818c-3.54 0-7.692 1.597-10.704 4.733-2.552 2.656-3.144 5.17-3.284 6.186-0.168 1.246-0.084 4.858 4.2 7.447l31.028-51.353c20.128 12.161 26.6 34.428 24.232 51.936-2.456 18.2-16.808 41.051-45.472 41.051v-60zM900.364 438.212c-2.588-4.284-6.2-4.368-7.444-4.2-1.016 0.14-3.532 0.732-6.188 3.284-3.136 3.012-4.732 7.164-4.732 10.704h60c0 28.664-22.852 43.016-41.052 45.472-17.508 2.368-39.776-4.104-51.936-24.232l51.352-31.028z" />
<glyph unicode="&#xe965;" glyph-name="Danger-Circle--Streamline-Solar-Ar" d="M472 288c0-22.091 17.909-40 40-40s40 17.909 40 40v0c0 22.091-17.909 40-40 40s-40-17.909-40-40v0z" />
<glyph unicode="&#xe966;" glyph-name="Danger-Square--Streamline-Solar-Ar" d="M472 288c0-22.091 17.909-40 40-40s40 17.909 40 40v0c0 22.091-17.909 40-40 40s-40-17.909-40-40v0z" />
<glyph unicode="&#xe967;" glyph-name="Danger--Streamline-Solar-Ar" d="M472 288c0-22.091 17.909-40 40-40s40 17.909 40 40v0c0 22.091-17.909 40-40 40s-40-17.909-40-40v0z" />
<glyph unicode="&#xe968;" glyph-name="Danger-Triangle--Streamline-Solar-Ar" d="M472 288c0-22.091 17.909-40 40-40s40 17.909 40 40v0c0 22.091-17.909 40-40 40s-40-17.909-40-40v0z" />
<glyph unicode="&#xe96b;" glyph-name="Emoji-Funny-Circle--Streamline-Solar-Ar" d="M573.739 526.667c0 0 0 0 0-0.001 8.577-32.008 32.828-53.32 54.166-47.603s31.684 36.3 23.108 68.308c0 0 0 0 0 0.001v0c-8.577 32.008-32.828 53.32-54.166 47.603s-31.684-36.3-23.108-68.308v0zM341.923 464.535c8.577-32.008 32.828-53.32 54.166-47.603s31.684 36.3 23.108 68.308v0c-8.577 32.008-32.828 53.32-54.166 47.603s-31.684-36.3-23.108-68.308v0z" />
<glyph unicode="&#xe96c;" glyph-name="Expressionless-Circle--Streamline-Solar-Ar" d="M672 508c0-33.136-17.908-60-40-60s-40 26.864-40 60c0 33.137 17.908 60 40 60s40-26.863 40-60zM352 508c0-33.137 17.909-60 40-60s40 26.863 40 60v0c0 33.137-17.909 60-40 60s-40-26.863-40-60v0z" />
<glyph unicode="&#xe970;" glyph-name="Info-Circle--Streamline-Solar-Ar" d="M472 608c0 22.091 17.909 40 40 40s40-17.909 40-40v0c0-22.091-17.909-40-40-40s-40 17.909-40 40v0z" />
<glyph unicode="&#xe971;" glyph-name="Info-Square--Streamline-Solar-Ar" d="M472 608c0 22.091 17.909 40 40 40s40-17.909 40-40v0c0-22.091-17.909-40-40-40s-40 17.909-40 40v0z" />
<glyph unicode="&#xe97e;" glyph-name="Question-Circle--Streamline-Solar-Ar" d="M472 288c0-22.091 17.909-40 40-40s40 17.909 40 40v0c0 22.091-17.909 40-40 40s-40-17.909-40-40v0z" />
<glyph unicode="&#xe97f;" glyph-name="Question-Square--Streamline-Solar-Ar" d="M472 288c0-22.091 17.909-40 40-40s40 17.909 40 40v0c0 22.091-17.909 40-40 40s-40-17.909-40-40v0z" />
<glyph unicode="&#xe992;" glyph-name="Number-Square-Eight--Streamline-Phosphor" d="M904 918.4h-784c-43.299 0-78.4-35.101-78.4-78.4v-784c0-43.301 35.1-78.402 78.4-78.4h784c43.301-0.002 78.4 35.1 78.4 78.4v784c0 43.299-35.101 78.4-78.4 78.4zM904 56h-784v784h784v-784zM618.869 470.589c88.327 82.268 54.474 229.302-60.936 264.662s-225.818-67.476-198.735-185.103c7.024-30.511 23.022-58.22 45.933-79.559-108.036-82.267-86.5-250.637 38.763-303.065s260.308 50.407 243.080 185.102c-5.993 46.853-30.526 89.346-68.106 117.962zM433.6 585.2c0 60.352 65.334 98.073 117.6 67.896s52.267-105.617 0-135.793c-11.918-6.881-25.438-10.504-39.2-10.504-43.299 0-78.4 35.101-78.4 78.4zM512 232.4c-75.44 0-122.591 81.666-84.87 147s132.021 65.333 169.741 0c8.601-14.898 13.13-31.797 13.13-49 0-54.124-43.876-98-98-98z" />
<glyph unicode="&#xe993;" glyph-name="Number-Square-Five--Streamline-Phosphor" d="M904 918.4h-784c-43.299 0-78.4-35.101-78.4-78.4v-784c0-43.301 35.1-78.402 78.4-78.4h784c43.301-0.002 78.4 35.1 78.4 78.4v784c0 43.299-35.101 78.4-78.4 78.4zM904 56h-784v784h784v-784zM466.822 644l-20.531-123.186c15.084 3.74 30.569 5.615 46.109 5.586 135.793-0.006 220.665-147.010 152.763-264.607-31.512-54.575-89.744-88.193-152.763-88.193-47.161-0.775-92.62 17.613-125.979 50.96-21.633 21.038-12.38 57.606 16.657 65.822 14.116 3.994 29.28-0.228 39.301-10.941 18.68-18.222 43.934-28.119 70.021-27.44 75.441 0 122.591 81.667 84.871 147-17.505 30.32-49.86 48.999-84.871 49-26.087 0.679-51.341-9.218-70.021-27.44-21.139-21.534-57.663-12.109-65.743 16.965-1.532 5.514-1.839 11.297-0.897 16.942l39.2 235.2c3.16 18.89 19.508 32.731 38.661 32.732h196c30.176-0.001 49.037-32.669 33.947-58.802-7.002-12.127-19.943-19.598-33.947-19.598z" />
<glyph unicode="&#xe994;" glyph-name="Number-Square-Four--Streamline-Phosphor" d="M904 918.4h-784c-43.299 0-78.4-35.101-78.4-78.4v-784c0-43.301 35.1-78.402 78.4-78.4h784c43.301-0.002 78.4 35.1 78.4 78.4v784c0 43.299-35.101 78.4-78.4 78.4zM904 56h-784v784h784v-784zM668.8 369.6h-39.2v313.6c-0.029 30.176-32.714 49.005-58.833 33.892-4.359-2.522-8.191-5.861-11.286-9.833l-274.4-352.8c-18.521-23.824-4.306-58.763 25.587-62.89 1.767-0.244 3.549-0.367 5.332-0.368h235.2v-78.4c0-30.176 32.667-49.037 58.8-33.948 12.129 7.002 19.6 19.944 19.6 33.948v78.4h39.2c30.176 0.001 49.037 32.669 33.948 58.802-7.003 12.128-19.943 19.598-33.948 19.598zM551.2 369.6h-155.036l155.036 199.332z" />
<glyph unicode="&#xe995;" glyph-name="Number-Square-Nine--Streamline-Phosphor" d="M904 918.4h-784c-43.299 0-78.4-35.101-78.4-78.4v-784c0-43.301 35.1-78.402 78.4-78.4h784c43.301-0.002 78.4 35.1 78.4 78.4v784c0 43.299-35.101 78.4-78.4 78.4zM904 56h-784v784h784v-784zM600.2 698.782c-117.612 67.876-264.597-17.021-264.573-152.813 0.017-97.286 78.794-176.192 176.079-176.369q4.606 0 9.261 0.294l-81.83-137.2c-11.197-18.623-5.109-42.801 13.573-53.9 18.623-11.197 42.801-5.109 53.9 13.573l158.319 265.090c48.783 84.512 19.799 192.57-64.729 241.325zM596.917 497c-37.703-65.343-132.004-65.368-169.741-0.044s9.392 147.003 84.832 147.022c17.198 0.005 34.095-4.517 48.992-13.11 46.852-27.079 62.888-87.009 35.819-133.868z" />
<glyph unicode="&#xe996;" glyph-name="Number-Square-One--Streamline-Phosphor" d="M904 918.4h-784c-43.299 0-78.4-35.101-78.4-78.4v-784c0-43.301 35.1-78.402 78.4-78.4h784c43.301-0.002 78.4 35.1 78.4 78.4v784c0 43.299-35.101 78.4-78.4 78.4zM904 56h-784v784h784v-784zM570.8 683.2v-470.4c0-30.176-32.667-49.036-58.8-33.948-12.129 7.003-19.6 19.944-19.6 33.948v396.9l-56.644-37.779c-25.122-16.748-58.953-0.020-60.896 30.11-0.902 13.983 5.725 27.385 17.384 35.158l117.6 78.4c25.101 16.748 58.921 0.042 60.874-30.070 0.050-0.772 0.077-1.545 0.082-2.319z" />
<glyph unicode="&#xe997;" glyph-name="Number-Square-Seven--Streamline-Phosphor" d="M904 918.4h-784c-43.299 0-78.4-35.101-78.4-78.4v-784c0-43.301 35.1-78.402 78.4-78.4h784c43.301-0.002 78.4 35.1 78.4 78.4v784c0 43.299-35.101 78.4-78.4 78.4zM904 56h-784v784h784v-784zM661.695 666.491c7.387-10.441 9.216-23.829 4.9-35.868l-156.8-431.2c-5.646-15.553-20.45-25.885-36.995-25.823-4.563-0.010-9.091 0.786-13.377 2.352-20.351 7.388-30.86 29.874-23.471 50.225l137.69 378.623h-179.242c-30.176 0-49.036 32.667-33.948 58.8 7.003 12.129 19.944 19.6 33.948 19.6h235.2c12.783-0.004 24.761-6.24 32.095-16.709z" />
<glyph unicode="&#xe998;" glyph-name="Number-Square-Six--Streamline-Phosphor" d="M904 918.4h-784c-43.299 0-78.4-35.101-78.4-78.4v-784c0-43.301 35.1-78.402 78.4-78.4h784c43.301-0.002 78.4 35.1 78.4 78.4v784c0 43.299-35.101 78.4-78.4 78.4zM904 56h-784v784h784v-784zM512 526.4h-8.918l81.781 136.71c15.465 25.914-2.921 58.851-33.096 59.288-14.004 0.202-27.053-7.082-34.23-19.108l-157.927-264.6c-68.274-117.381 16.124-264.653 151.917-265.089s221.134 146.291 153.615 264.108c-31.452 54.884-89.885 88.724-153.142 88.691zM512 252c-75.44 0-122.591 81.667-84.87 147s132.021 65.334 169.741 0c8.601-14.898 13.13-31.797 13.13-49 0-54.124-43.876-98-98-98z" />
<glyph unicode="&#xe999;" glyph-name="Number-Square-Three--Streamline-Phosphor" d="M904 918.4h-784c-43.299 0-78.4-35.101-78.4-78.4v-784c0-43.301 35.1-78.402 78.4-78.4h784c43.301-0.002 78.4 35.1 78.4 78.4v784c0 43.299-35.101 78.4-78.4 78.4zM904 56h-784v784h784v-784zM668.8 350c-0.034-135.793-147.056-220.626-264.639-152.7-13.849 8-26.545 17.847-37.74 29.269-21.921 20.738-13.172 57.43 15.748 66.045 14.445 4.303 30.077-0.057 40.21-11.214 52.808-53.875 144.135-30.38 164.388 42.291 17.404 62.449-29.538 124.286-94.367 124.309-30.176 0.009-49.027 32.681-33.932 58.81 0.57 0.987 1.183 1.948 1.837 2.881l93.982 134.309h-159.887c-30.176 0-49.036 32.667-33.948 58.8 7.003 12.128 19.944 19.6 33.948 19.6h235.2c30.176-0.008 49.027-32.68 33.932-58.809-0.57-0.987-1.183-1.948-1.836-2.882l-102.9-147c66.538-27.134 110.025-91.851 110.005-163.709z" />
<glyph unicode="&#xe99a;" glyph-name="Number-Square-Two--Streamline-Phosphor" d="M904 918.4h-784c-43.299 0-78.4-35.101-78.4-78.4v-784c0-43.301 35.1-78.402 78.4-78.4h784c43.301-0.002 78.4 35.1 78.4 78.4v784c0 43.299-35.101 78.4-78.4 78.4zM904 56h-784v784h784v-784zM668.8 212.8c0-21.649-17.551-39.199-39.2-39.2h-235.2c-30.176-0.001-49.036 32.664-33.949 58.798 0.784 1.357 1.649 2.667 2.589 3.921l211.533 282.044c36.223 48.273 6.606 117.657-53.312 124.89-36.328 4.386-70.859-16.942-83.202-51.39-10.071-28.46-47.175-35.345-66.786-12.393-9.102 10.652-11.829 25.35-7.155 38.559 5.381 15.091 13.013 29.282 22.638 42.091 72.649 96.394 222.405 77.995 269.559-33.118 21.885-51.568 14.596-110.894-19.12-155.63l-164.395-219.373h156.8c21.649-0.001 39.2-17.551 39.2-39.2z" />
<glyph unicode="&#xe99b;" glyph-name="Number-Square-Zero--Streamline-Phosphor" d="M512 722.4c-69.727 0-127.4-31.556-166.6-91.189-31.703-48.314-49-113.386-49-183.211s17.444-134.897 49-183.211c39.2-59.633 96.726-91.189 166.6-91.189s127.4 31.556 166.6 91.189c31.703 48.314 49 113.386 49 183.211s-17.444 134.897-49 183.211c-39.2 59.633-96.873 91.189-166.6 91.189zM512 252c-108.29 0-137.2 123.186-137.2 196s28.91 196 137.2 196 137.2-123.186 137.2-196-28.91-196-137.2-196zM904 918.4h-784c-43.3 0.002-78.4-35.1-78.4-78.4v-784c0-43.301 35.1-78.402 78.4-78.4h784c43.301-0.002 78.4 35.1 78.4 78.4v784c0 43.299-35.101 78.4-78.4 78.4zM904 56h-784v784h784v-784z" />
<glyph unicode="&#xe99c;" glyph-name="Plus-Circle--Streamline-Phosphor" d="M512 918.4c-362.114 0-588.435-392-407.378-705.6s633.699-313.6 814.756 0c41.286 71.51 63.022 152.628 63.022 235.2-0.274 259.681-210.719 470.125-470.4 470.4zM512 49.969c-306.404-0.014-497.904 331.67-344.713 597.031s536.195 265.378 689.409 0.031c34.94-60.512 53.335-129.156 53.335-199.031-0.249-219.723-178.308-397.781-398.031-398.031zM729.108 448c0-19.984-16.201-36.184-36.185-36.184h-144.738v-144.738c0-27.855-30.154-45.264-54.277-31.337-11.196 6.463-18.092 18.409-18.092 31.337v144.738h-144.739c-27.855 0.001-45.264 30.156-31.336 54.278 6.464 11.195 18.409 18.091 31.336 18.091h144.739v144.739c0 27.855 30.154 45.264 54.277 31.337 11.196-6.464 18.092-18.409 18.092-31.337v-144.739h144.738c19.984-0.001 36.185-16.201 36.185-36.185z" />
<glyph unicode="&#xe99d;" glyph-name="Plus-Square--Streamline-Phosphor" d="M904 918.4h-784c-43.299 0-78.4-35.101-78.4-78.4v-784c0-43.301 35.1-78.402 78.4-78.4h784c43.301-0.002 78.4 35.1 78.4 78.4v784c0 43.299-35.101 78.4-78.4 78.4zM904 56h-784v784h784v-784zM747.2 448c0-21.649-17.551-39.199-39.2-39.2h-156.8v-156.8c0-30.176-32.667-49.036-58.8-33.948-12.128 7.002-19.6 19.943-19.6 33.948v156.8h-156.8c-30.176 0-49.036 32.667-33.948 58.8 7.003 12.129 19.943 19.601 33.948 19.6h156.8v156.8c0 30.176 32.667 49.036 58.8 33.948 12.128-7.002 19.6-19.943 19.6-33.948v-156.8h156.8c21.649-0.001 39.2-17.551 39.2-39.2z" />
<glyph unicode="&#xe99e;" glyph-name="Plus--Streamline-Phosphor" d="M982.4 448c0-21.649-17.551-39.199-39.2-39.2h-392v-392c0-30.176-32.667-49.036-58.8-33.948-12.128 7.002-19.6 19.943-19.6 33.948v392h-392c-30.176 0-49.036 32.667-33.948 58.8 7.003 12.129 19.943 19.601 33.948 19.6h392v392c0 30.176 32.667 49.036 58.8 33.948 12.128-7.002 19.6-19.943 19.6-33.948v-392h392c21.649-0.001 39.2-17.551 39.2-39.2z" />
<glyph unicode="&#xe99f;" glyph-name="Question-Mark--Streamline-Phosphor" d="M839.235 632.070c0-145.773-125.116-266.44-286.33-284.080v-43.154c-0.030-31.488-34.136-51.136-61.39-35.365-12.625 7.305-20.404 20.78-20.418 35.365v81.809c0 22.591 18.313 40.905 40.904 40.904 135.342 0 245.426 91.728 245.426 204.522s-110.084 204.522-245.426 204.522-245.426-91.728-245.426-204.522c-0.030-31.488-34.136-51.136-61.39-35.365-12.625 7.305-20.405 20.78-20.418 35.365 0 157.891 146.796 286.33 327.235 286.33s327.235-128.44 327.235-286.33zM512 141.217c-62.976 0-102.337-68.174-70.848-122.713s110.209-54.539 141.697 0c7.18 12.437 10.961 26.544 10.961 40.905 0 45.182-36.627 81.808-81.809 81.808z" />
<glyph unicode="&#xe9a0;" glyph-name="Question--Streamline-Phosphor" d="M566.277 212.8c0-41.783-45.231-67.896-81.415-47.005s-36.185 73.119 0 94.010c8.251 4.764 17.611 7.272 27.138 7.272 29.976 0 54.277-24.301 54.277-54.277zM512 701.292c-99.779 0-180.923-73.048-180.923-162.831v-18.092c0-27.855 30.154-45.264 54.277-31.337 11.196 6.464 18.092 18.409 18.092 31.337v18.092c0 49.754 48.714 90.462 108.554 90.462s108.554-40.708 108.554-90.462-48.714-90.462-108.554-90.462c-19.985 0.001-36.185-16.2-36.185-36.184v-36.185c0-27.855 30.154-45.264 54.277-31.337 11.196 6.463 18.092 18.409 18.092 31.337v3.257c82.501 15.152 144.738 80.963 144.738 159.574 0 89.783-81.144 162.831-180.923 162.831zM982.4 448c0-362.114-392-588.435-705.6-407.378s-313.6 633.7 0 814.757c71.51 41.286 152.628 63.022 235.2 63.022 259.681-0.274 470.126-210.719 470.4-470.4zM910.031 448c0 306.404-331.692 497.907-597.046 344.705s-265.354-536.208 0-689.41c60.509-34.934 129.147-53.326 199.015-53.326 219.723 0.249 397.782 178.308 398.031 398.031z" />
<glyph unicode="&#xe9a1;" glyph-name="Smiley-Angry--Streamline-Phosphor" d="M349.169 339.446c-41.782-0.002-67.896 45.228-47.007 81.413s73.118 36.188 94.011 0.004c4.764-8.251 7.273-17.612 7.273-27.14 0-29.976-24.301-54.276-54.277-54.277zM674.831 448c-41.782 0-67.896-45.231-47.005-81.415s73.119-36.184 94.011 0c4.764 8.251 7.272 17.611 7.272 27.139 0 29.976-24.301 54.277-54.277 54.277zM982.4 448c0-362.114-392-588.435-705.6-407.378s-313.6 633.7 0 814.757c71.51 41.286 152.628 63.022 235.2 63.022 259.681-0.274 470.126-210.719 470.4-470.4zM910.031 448c0 306.404-331.692 497.907-597.046 344.705s-265.354-536.208 0-689.41c60.503-34.931 129.153-53.323 199.015-53.326 219.723 0.249 397.782 178.308 398.031 398.031zM709.025 659.047l-197.025-131.395-197.025 131.169c-23.189 15.46-54.418 0.019-56.211-27.793-0.832-12.908 5.285-25.279 16.047-32.454l217.108-144.739c12.159-8.112 28.005-8.112 40.165 0l217.108 144.739c23.189 15.459 20.947 50.224-4.036 62.577-11.595 5.733-25.367 4.845-36.129-2.33zM640.591 224.832c-38.129 25.374-74.585 42.245-128.591 42.245s-90.462-16.871-128.591-42.245c-22.92-15.83-20.109-50.535 5.060-62.469 11.274-5.346 24.507-4.506 35.015 2.221 29.4 19.54 52.332 30.124 88.517 30.124s59.116-10.584 88.516-30.124c22.92-15.83 54.381-0.911 56.63 26.853 1.080 13.336-5.287 26.18-16.556 33.395z" />
<glyph unicode="&#xe9a2;" glyph-name="Smiley-Blank--Streamline-Phosphor" d="M512 918.4c-362.114 0-588.435-392-407.378-705.6s633.699-313.6 814.756 0c41.286 71.51 63.022 152.628 63.022 235.2-0.274 259.681-210.719 470.125-470.4 470.4zM512 49.969c-306.404-0.014-497.904 331.67-344.713 597.031s536.195 265.378 689.409 0.031c34.94-60.512 53.335-129.156 53.335-199.031-0.249-219.723-178.308-397.781-398.031-398.031zM403.446 538.462c0-41.782-45.231-67.896-81.416-47.005s-36.185 73.119 0 94.010c8.252 4.764 17.61 7.272 27.139 7.272 29.975-0.001 54.277-24.301 54.277-54.277zM729.108 538.462c0-41.782-45.231-67.896-81.415-47.005s-36.184 73.119 0 94.010c8.252 4.764 17.61 7.272 27.138 7.272 29.976-0.001 54.277-24.301 54.277-54.277z" />
<glyph unicode="&#xe9a3;" glyph-name="Smiley-Meh--Streamline-Phosphor" d="M512 918.4c-362.114 0-588.435-392-407.378-705.6s633.699-313.6 814.756 0c41.286 71.51 63.022 152.628 63.022 235.2-0.274 259.681-210.719 470.125-470.4 470.4zM512 49.969c-306.404-0.014-497.904 331.67-344.713 597.031s536.195 265.378 689.409 0.031c34.94-60.512 53.335-129.156 53.335-199.031-0.249-219.723-178.308-397.781-398.031-398.031zM729.108 303.262c0-19.984-16.201-36.184-36.185-36.184h-361.846c-27.855 0.001-45.264 30.156-31.336 54.278 6.464 11.194 18.409 18.091 31.336 18.091h361.847c19.983-0.001 36.184-16.201 36.184-36.184zM294.892 538.462c0 41.782 45.231 67.896 81.416 47.005s36.185-73.119 0-94.010c-8.25-4.764-17.612-7.272-27.138-7.272-29.978-0.001-54.277 24.3-54.277 54.277zM729.108 538.462c0-41.782-45.231-67.896-81.415-47.005s-36.184 73.119 0 94.010c8.252 4.764 17.61 7.272 27.138 7.272 29.976-0.001 54.277-24.301 54.277-54.277z" />
<glyph unicode="&#xe9a4;" glyph-name="Smiley-Melting--Streamline-Phosphor" d="M713.126 432.352c0-38.897-42.106-63.207-75.792-43.759s-33.685 68.069 0 87.517c7.682 4.435 16.394 6.77 25.264 6.769 27.905-0.001 50.528-22.623 50.528-50.528zM511.015 634.463c0 38.897-42.107 63.207-75.792 43.759s-33.685-68.069 0-87.517c7.681-4.435 16.394-6.769 25.264-6.769 27.906 0 50.528 22.622 50.528 50.528zM818.393 794.469c-241.7 234.988-647.144 120.207-729.799-206.605-35.418-140.041 0.502-288.539 96.010-396.909 16.985-19.594 48.812-13.453 57.288 11.053 4.059 11.736 1.332 24.755-7.097 33.875-190.147 212.618-78.823 551.344 200.382 609.707s516.889-207.409 427.831-478.39c-15.95-48.531-41.762-93.239-75.816-131.317-17.293-19.335-7.17-50.139 18.221-55.447 11.784-2.464 23.987 1.547 32.013 10.52 155.534 174.086 147.162 439.574-19.032 603.514zM612.071 314.453h-67.371c-91.54 0-202.112 75.119-202.112 168.427 0.009 9.423 0.784 18.829 2.316 28.127 4.516 25.534-20.303 46.383-44.675 37.527-11.522-4.187-19.859-14.302-21.769-26.411-2.156-12.97-3.24-26.096-3.242-39.243 0-62.655 31.411-122.656 88.424-169.058 52.212-42.401 118.194-66.739 181.059-66.739h67.371c25.931-0.027 42.108-28.116 29.119-50.559-6.016-10.394-17.11-16.799-29.119-16.812h-235.797c-77.793-0.048-126.362-84.29-87.425-151.637 18.049-31.218 51.365-50.452 87.424-50.475 25.931 0.027 42.108 28.116 29.119 50.559-6.015 10.394-17.11 16.799-29.119 16.812-25.931 0.027-42.108 28.116-29.119 50.559 6.016 10.394 17.11 16.799 29.119 16.812h235.797c77.793 0.047 126.362 84.29 87.424 151.637-18.049 31.218-51.365 50.452-87.424 50.475z" />
<glyph unicode="&#xe9a5;" glyph-name="Smiley-Nervous--Streamline-Phosphor" d="M512 918.4c-362.114 0-588.435-392-407.378-705.6s633.699-313.6 814.756 0c41.286 71.51 63.022 152.628 63.022 235.2-0.274 259.681-210.719 470.125-470.4 470.4zM512 49.969c-306.404-0.014-497.904 331.67-344.713 597.031s536.195 265.378 689.409 0.031c34.94-60.512 53.335-129.156 53.335-199.031-0.249-219.723-178.308-397.781-398.031-398.031zM294.892 538.462c0 41.782 45.231 67.896 81.416 47.005s36.185-73.119 0-94.010c-8.25-4.764-17.612-7.272-27.138-7.272-29.978-0.001-54.277 24.3-54.277 54.277zM620.554 538.462c0 41.782 45.231 67.896 81.415 47.005s36.184-73.119 0-94.010c-8.25-4.764-17.612-7.272-27.139-7.272-29.977-0.001-54.277 24.3-54.277 54.277zM765.292 267.077c0-19.983-16.201-36.183-36.184-36.184-45.231 0-68.118 30.486-83.225 50.658-13.569 18.093-17.731 21.711-25.329 21.711s-11.624-3.438-25.329-21.711c-15.107-20.173-37.994-50.658-83.225-50.658s-68.118 30.486-83.225 50.658c-13.569 18.093-17.73 21.711-25.329 21.711s-11.624-3.438-25.329-21.711c-15.107-20.173-37.994-50.658-83.225-50.658-27.855 0-45.264 30.154-31.337 54.277 6.464 11.195 18.41 18.091 31.337 18.092 7.599 0 11.624 3.438 25.329 21.711 15.107 20.173 37.994 50.658 83.225 50.658s68.118-30.485 83.225-50.658c13.569-18.092 17.731-21.711 25.329-21.711s11.624 3.438 25.329 21.711c15.107 20.173 37.994 50.658 83.225 50.658s68.118-30.485 83.225-50.658c13.569-18.092 17.73-21.711 25.329-21.711 19.983-0.001 36.184-16.201 36.184-36.184z" />
<glyph unicode="&#xe9a6;" glyph-name="Smiley-Sad--Streamline-Phosphor" d="M512 918.4c-362.114 0-588.435-392-407.378-705.6s633.699-313.6 814.756 0c41.286 71.51 63.022 152.628 63.022 235.2-0.274 259.681-210.719 470.125-470.4 470.4zM512 49.969c-306.404-0.014-497.904 331.67-344.713 597.031s536.195 265.378 689.409 0.031c34.94-60.512 53.335-129.156 53.335-199.031-0.249-219.723-178.308-397.781-398.031-398.031zM294.892 538.462c0 41.782 45.231 67.896 81.416 47.005s36.185-73.119 0-94.010c-8.25-4.764-17.612-7.272-27.138-7.272-29.978-0.001-54.277 24.3-54.277 54.277zM729.108 538.462c0-41.782-45.231-67.896-81.415-47.005s-36.184 73.119 0 94.010c8.252 4.764 17.61 7.272 27.138 7.272 29.976-0.001 54.277-24.301 54.277-54.277zM724.223 248.985c14.944-23.507-1.164-54.376-28.994-55.564-14.010-0.598-27.105 6.953-33.605 19.379-33.788 58.393-86.889 90.462-149.624 90.462s-115.836-32.114-149.624-90.462c-12.911-24.682-47.7-26.131-62.619-2.608-7.511 11.842-7.503 26.958 0.020 38.793 46.542 80.466 123.887 126.646 212.223 126.646s165.68-46.135 212.223-126.646z" />
<glyph unicode="&#xe9a7;" glyph-name="Smiley-Sticker--Streamline-Phosphor" d="M724.208 321.519c-46.539-80.46-123.879-126.638-212.208-126.638s-165.669 46.132-212.254 126.638c-13.926 24.128 3.489 54.284 31.347 54.28 12.929-0.001 24.875-6.9 31.339-18.098 33.74-58.389 86.837-90.456 149.568-90.456s115.828 32.112 149.613 90.456c12.91 24.68 47.697 26.129 62.615 2.608 7.511-11.841 7.503-26.957-0.020-38.79zM982.368 448.156c0.023-46.84-6.928-93.423-20.624-138.216-1.746-5.655-4.852-10.795-9.046-14.97l-287.512-287.512c-4.151-4.203-9.279-7.31-14.925-9.045-346.093-106.434-677.62 201.703-596.747 554.646s513.49 485.985 778.711 239.475c95.707-88.955 150.1-213.713 150.143-344.377zM910.004 448.156c-0.38 306-331.873 496.839-596.687 343.51s-264.339-535.83 0.855-688.501c92.828-53.441 203.295-67.158 306.374-38.043l274.487 274.487c9.968 35.319 15.006 71.847 14.97 108.546zM349.18 484.338c41.779 0 67.892 45.228 47.002 81.41s-73.115 36.182-94.004 0c-4.764-8.251-7.271-17.61-7.271-27.137 0-29.974 24.299-54.273 54.273-54.273zM674.82 592.885c-41.779 0-67.892-45.228-47.002-81.41s73.115-36.182 94.004 0c4.763 8.251 7.271 17.61 7.271 27.137 0 29.974-24.299 54.273-54.273 54.273z" />
<glyph unicode="&#xe9a8;" glyph-name="Smiley--Streamline-Phosphor" d="M512 918.4c-362.114 0-588.435-392-407.378-705.6s633.699-313.6 814.756 0c41.286 71.51 63.022 152.628 63.022 235.2-0.274 259.681-210.719 470.125-470.4 470.4zM512 49.969c-306.404-0.014-497.904 331.67-344.713 597.031s536.195 265.378 689.409 0.031c34.94-60.512 53.335-129.156 53.335-199.031-0.249-219.723-178.308-397.781-398.031-398.031zM294.892 538.462c0 41.782 45.231 67.896 81.416 47.005s36.185-73.119 0-94.010c-8.25-4.764-17.612-7.272-27.138-7.272-29.978-0.001-54.277 24.3-54.277 54.277zM729.108 538.462c0-41.782-45.231-67.896-81.415-47.005s-36.184 73.119 0 94.010c8.252 4.764 17.61 7.272 27.138 7.272 29.976-0.001 54.277-24.301 54.277-54.277zM724.268 321.354c-46.542-80.466-123.932-126.646-212.268-126.646s-165.68 46.135-212.223 126.646c-14.943 23.507 1.164 54.376 28.994 55.564 14.010 0.598 27.105-6.953 33.605-19.379 33.788-58.393 86.889-90.462 149.623-90.462s115.836 32.114 149.578 90.462c13.928 24.129 48.753 24.134 62.686 0.007 6.466-11.197 6.468-24.993 0.004-36.192z" />
<glyph unicode="&#xe9a9;" glyph-name="Smiley-Wink--Streamline-Phosphor" d="M512 918.4c-362.114 0-588.435-392-407.378-705.6s633.699-313.6 814.756 0c41.286 71.51 63.022 152.628 63.022 235.2-0.274 259.681-210.719 470.125-470.4 470.4zM512 49.969c-306.404-0.014-497.904 331.67-344.713 597.031s536.195 265.378 689.409 0.031c34.94-60.512 53.335-129.156 53.335-199.031-0.249-219.723-178.308-397.781-398.031-398.031zM294.892 538.462c0 41.782 45.231 67.896 81.416 47.005s36.185-73.119 0-94.010c-8.25-4.764-17.612-7.272-27.138-7.272-29.978-0.001-54.277 24.3-54.277 54.277zM765.292 538.462c0-19.984-16.201-36.184-36.184-36.185h-108.554c-27.855 0-45.264 30.154-31.337 54.277 6.463 11.195 18.41 18.091 31.337 18.092h108.554c19.983-0.001 36.184-16.201 36.184-36.185zM724.223 321.354c-46.542-80.466-123.887-126.646-212.223-126.646s-165.68 46.135-212.268 126.646c-13.928 24.129 3.489 54.287 31.349 54.284 12.93-0.001 24.877-6.901 31.341-18.099 33.742-58.393 86.843-90.462 149.578-90.462s115.836 32.114 149.624 90.462c12.911 24.682 47.7 26.131 62.619 2.608 7.511-11.842 7.503-26.958-0.020-38.793z" />
<glyph unicode="&#xe9aa;" glyph-name="Smiley-X-Eyes--Streamline-Phosphor" d="M512 918.4c-362.114 0-588.435-392-407.378-705.6s633.699-313.6 814.756 0c41.286 71.51 63.022 152.628 63.022 235.2-0.274 259.681-210.719 470.125-470.4 470.4zM512 49.969c-306.404-0.014-497.904 331.67-344.713 597.031s536.195 265.378 689.409 0.031c34.94-60.512 53.335-129.156 53.335-199.031-0.249-219.723-178.308-397.781-398.031-398.031zM790.893 473.601c19.707-19.707 10.691-53.358-16.23-60.572-12.494-3.348-25.825 0.224-34.971 9.37l-46.769 46.814-46.769-46.814c-19.707-19.707-53.358-10.691-60.572 16.23-3.348 12.494 0.224 25.825 9.37 34.971l46.814 46.769-46.814 46.769c-19.707 19.707-10.691 53.358 16.23 60.572 12.494 3.348 25.825-0.224 34.971-9.37l46.769-46.814 46.769 46.814c19.707 19.707 53.358 10.69 60.572-16.23 3.348-12.494-0.224-25.825-9.37-34.971l-46.813-46.769zM429.047 567.138l-46.814-46.769 46.814-46.769c19.707-19.707 10.691-53.358-16.23-60.572-12.494-3.348-25.825 0.224-34.971 9.37l-46.769 46.814-46.769-46.814c-19.707-19.707-53.358-10.691-60.572 16.23-3.348 12.494 0.224 25.825 9.37 34.971l46.813 46.769-46.813 46.769c-19.707 19.707-10.691 53.358 16.23 60.572 12.494 3.348 25.825-0.224 34.971-9.37l46.768-46.814 46.769 46.814c19.707 19.707 53.358 10.69 60.572-16.23 3.348-12.494-0.224-25.825-9.37-34.971zM566.277 212.8c0-41.783-45.231-67.896-81.415-47.005s-36.185 73.119 0 94.010c8.251 4.764 17.611 7.272 27.138 7.272 29.976 0 54.277-24.301 54.277-54.277z" />
<glyph unicode="&#xe9ab;" glyph-name="Warning-Circle--Streamline-Phosphor" d="M512 918.4c-362.114 0-588.435-392-407.378-705.6s633.699-313.6 814.756 0c41.286 71.51 63.022 152.628 63.022 235.2-0.274 259.681-210.719 470.125-470.4 470.4zM512 49.969c-306.404-0.014-497.904 331.67-344.713 597.031s536.195 265.378 689.409 0.031c34.94-60.512 53.335-129.156 53.335-199.031-0.249-219.723-178.308-397.781-398.031-398.031zM475.815 411.816v253.292c0 27.855 30.154 45.264 54.277 31.337 11.196-6.464 18.092-18.409 18.092-31.337v-253.292c0-27.855-30.154-45.264-54.277-31.337-11.196 6.464-18.092 18.409-18.092 31.337zM566.277 248.985c0-41.782-45.231-67.896-81.415-47.005s-36.185 73.119 0 94.011c8.252 4.764 17.61 7.272 27.138 7.272 29.975-0.001 54.277-24.302 54.277-54.277z" />
<glyph unicode="&#xe9ac;" glyph-name="Warning-Diamond--Streamline-Phosphor" d="M511.858 683.215c18.558-0.001 33.602-15.045 33.602-33.602v-235.215c-0.027-25.867-28.046-42.004-50.434-29.047-10.368 6.001-16.758 17.068-16.77 29.047v235.215c0 18.558 15.045 33.601 33.602 33.602zM461.455 263.188c0-38.8 42.003-63.051 75.605-43.651s33.602 67.901 0 87.301c-7.662 4.423-16.355 6.753-25.202 6.753-27.838 0.001-50.403-22.566-50.403-50.403zM982.289 448c0.050-17.779-7.013-34.839-19.615-47.379l-403.436-403.479c-26.212-26.057-68.546-26.057-94.758 0l-403.226 403.479c-26.057 26.212-26.057 68.546 0 94.758l403.436 403.478c26.212 26.057 68.546 26.057 94.758 0l403.436-403.478c12.525-12.575 19.511-29.631 19.405-47.379zM915.085 448l-403.227 403.226-403.226-403.226 403.226-403.226z" />
<glyph unicode="&#xe9ad;" glyph-name="Warning--Streamline-Phosphor" d="M968.958 178.837l-367.271 637.821c-40.192 68.432-139.139 68.432-179.331 0l-367.271-637.821c-17.979-30.773-17.979-68.846 0-99.619 18.447-32.009 52.724-51.579 89.666-51.195h734.542c36.912-0.353 71.149 19.213 89.582 51.195 18.005 30.758 18.037 68.831 0.084 99.619zM910.707 112.858c-6.519-11.12-18.527-17.862-31.414-17.639h-734.543c-12.888-0.223-24.895 6.519-31.415 17.639-5.907 10-5.907 22.422 0 32.423l367.271 637.821c14.278 23.76 48.719 23.76 62.997 0l367.271-637.821c5.855-10.031 5.79-22.453-0.168-32.423zM478.423 364.006v167.991c0 25.864 27.998 42.029 50.397 29.097 10.395-6.002 16.799-17.093 16.799-29.097v-167.991c0-25.864-27.999-42.029-50.397-29.097-10.395 6.002-16.799 17.094-16.799 29.097zM562.418 212.813c0-38.796-41.998-63.043-75.596-43.645s-33.598 67.893 0 87.291c7.662 4.423 16.351 6.752 25.199 6.752 27.833-0.001 50.397-22.564 50.397-50.397z" />
<glyph unicode="&#xe9ae;" glyph-name="X-Circle--Streamline-Phosphor" d="M682.339 567.138l-119.183-119.138 119.183-119.138c19.707-19.707 10.691-53.358-16.23-60.572-12.494-3.348-25.825 0.224-34.971 9.37l-119.138 119.183-119.138-119.183c-19.707-19.707-53.358-10.691-60.572 16.23-3.348 12.494 0.224 25.825 9.37 34.971l119.183 119.138-119.183 119.138c-19.707 19.707-10.69 53.358 16.23 60.572 12.494 3.348 25.825-0.224 34.971-9.37l119.138-119.183 119.138 119.183c19.707 19.707 53.358 10.69 60.572-16.23 3.348-12.494-0.224-25.825-9.37-34.971zM982.4 448c0-362.114-392-588.435-705.6-407.378s-313.6 633.7 0 814.757c71.51 41.286 152.628 63.022 235.2 63.022 259.681-0.274 470.126-210.719 470.4-470.4zM910.031 448c0 306.404-331.692 497.907-597.046 344.705s-265.354-536.208 0-689.41c60.503-34.931 129.153-53.323 199.015-53.326 219.723 0.249 397.782 178.308 398.031 398.031z" />
<glyph unicode="&#xe9af;" glyph-name="X-Logo--Streamline-Phosphor" d="M936.971 38.376l-306.547 481.758 302.482 332.745c20.013 22.56 8.098 58.324-21.446 64.375-13.382 2.741-27.226-1.687-36.534-11.685l-288.134-316.928-198.276 311.59c-7.186 11.31-19.654 18.163-33.054 18.168h-235.052c-30.157 0.015-49.021-32.622-33.955-58.746 0.289-0.502 0.59-0.997 0.901-1.486l306.546-481.709-302.482-332.99c-20.549-22.072-9.498-58.113 19.892-64.872 13.968-3.213 28.576 1.46 38.087 12.182l288.134 316.928 198.276-311.591c7.244-11.217 19.701-17.972 33.054-17.923h235.052c30.157 0.009 48.995 32.661 33.909 58.774-0.275 0.476-0.559 0.946-0.854 1.409zM690.363 56.544l-498.603 783.505h142.010l498.799-783.505z" />
<glyph unicode="&#xe9b0;" glyph-name="Arrow-Square-In--Streamline-Phosphor" d="M512.011 408.812v-313.593c0-30.175-32.666-49.035-58.798-33.948-12.128 7.002-19.6 19.943-19.6 33.948v218.927l-325.058-325.059c-21.349-21.349-57.804-11.581-65.618 17.582-3.627 13.535 0.243 27.976 10.151 37.885l325.059 325.058h-218.927c-30.175 0.001-49.035 32.668-33.947 58.8 7.002 12.127 19.943 19.597 33.947 19.598h313.593c21.65 0.001 39.199-17.549 39.199-39.199zM904.002 918.4h-627.185c-43.298 0-78.398-35.1-78.398-78.398v-235.194c0-30.175 32.666-49.035 58.799-33.948 12.128 7.002 19.6 19.943 19.6 33.948v235.194h627.185v-627.185h-235.194c-30.175-0.001-49.035-32.668-33.947-58.8 7.002-12.127 19.943-19.597 33.947-19.598h235.194c43.298 0 78.398 35.1 78.398 78.398v627.185c0 43.298-35.1 78.398-78.398 78.398z" />
<glyph unicode="&#xe9b1;" glyph-name="Arrow-Square-Out--Streamline-Phosphor" d="M982.4 565.6c0-30.176-32.667-49.036-58.8-33.948-12.129 7.003-19.6 19.944-19.6 33.948v218.932l-325.017-325.066c-21.35-21.349-57.805-11.582-65.619 17.583-3.627 13.535 0.243 27.977 10.152 37.885l325.017 325.066h-218.932c-30.176 0.001-49.037 32.669-33.947 58.802 7.002 12.128 19.943 19.599 33.947 19.599h313.6c21.649 0 39.2-17.55 39.2-39.2zM786.4 448c-21.65 0.001-39.2-17.55-39.2-39.2v-352.8h-627.2v627.2h352.8c30.176 0 49.036 32.667 33.948 58.8-7.002 12.129-19.943 19.6-33.948 19.6h-352.8c-43.3 0.002-78.4-35.1-78.4-78.4v-627.2c0-43.301 35.1-78.402 78.4-78.4h627.2c43.298 0.002 78.4 35.102 78.4 78.4v352.8c0 21.649-17.551 39.199-39.2 39.2z" />
<glyph unicode="&#xe9b2;" glyph-name="Bell-Ringing--Streamline-Phosphor" d="M929.98 678.44c-17.076-8.843-38.088-2.177-46.943 14.893-33.252 65.691-83.584 121.212-145.707 160.731-22.695 14.314-21.383 47.828 2.36 60.325 11.019 5.8 24.296 5.28 34.828-1.363 72.4-46.357 131.19-111.112 170.355-187.642 8.842-17.076 2.177-38.088-14.893-46.943zM110.041 674.521c13.010 0.005 24.933 7.26 30.918 18.812 33.252 65.691 83.584 121.212 145.707 160.731 22.694 14.314 21.383 47.828-2.36 60.325-11.019 5.8-24.296 5.28-34.829-1.363-72.401-46.357-131.189-111.112-170.354-187.643-12.011-23.184 4.808-50.851 30.918-50.862zM920.444 221.897c27.019-46.333-6.251-104.54-59.886-104.773-0.084 0-0.168 0-0.252 0h-177.67c-26.683-131.407-185.613-184.651-286.073-95.839-28.372 25.082-47.797 58.727-55.333 95.839h-177.67c-53.636 0.106-87.043 58.234-60.133 104.631 0.027 0.048 0.055 0.095 0.083 0.143 39.236 67.715 60.051 163.996 60.051 278.437 0 268.178 290.311 435.789 522.56 301.7 107.787-62.231 174.186-177.238 174.186-301.7 0-114.397 20.816-210.679 60.138-278.437zM610.435 117.124h-197.005c26.888-75.827 125.778-94.112 178.003-32.913 8.292 9.717 14.733 20.873 19.002 32.913zM860.306 186.799c-46.333 79.56-69.675 185.029-69.675 313.536 0 214.542-232.249 348.631-418.048 241.36-86.23-49.785-139.349-141.791-139.349-241.36 0-128.55-23.428-234.019-69.675-313.536z" />
<glyph unicode="&#xe9b3;" glyph-name="Camera--Streamline-Phosphor" d="M873.846 755.569h-125.38l-61.65 92.451c-6.708 10.054-17.992 16.095-30.078 16.103h-289.477c-12.086-0.008-23.371-6.048-30.078-16.103l-61.695-92.451h-125.334c-59.955 0.003-108.554-48.6-108.554-108.554v-506.585c0-59.954 48.599-108.557 108.554-108.554h723.692c59.951 0.003 108.554 48.603 108.554 108.554v506.585c0 59.951-48.603 108.551-108.554 108.554zM910.031 140.431c0-19.983-16.201-36.184-36.184-36.184h-723.692c-19.985-0.001-36.184 16.2-36.184 36.184v506.585c0 19.984 16.2 36.185 36.184 36.185h144.738c12.102-0.008 23.407 6.035 30.124 16.102l61.604 92.452h250.714l61.65-92.452c6.717-10.067 18.021-16.11 30.124-16.102h144.738c19.984 0 36.184-16.2 36.184-36.185zM512 610.831c-153.202 0.007-248.952-165.835-172.357-298.515s268.098-132.689 344.704-0.015c17.47 30.256 26.668 64.578 26.668 99.516-0.125 109.861-89.154 198.891-199.015 199.015zM512 285.169c-97.492 0-158.425 105.538-109.679 189.969s170.612 84.431 219.358 0c11.115-19.252 16.967-41.092 16.967-63.323 0-69.945-56.702-126.646-126.646-126.646z" />
<glyph unicode="&#xe9b4;" glyph-name="Caret-Circle-Down--Streamline-Phosphor" d="M512 918.4c-362.114 0-588.435-392-407.378-705.6s633.699-313.6 814.756 0c41.286 71.51 63.022 152.628 63.022 235.2-0.274 259.681-210.719 470.125-470.4 470.4zM512 49.969c-306.404-0.014-497.904 331.67-344.713 597.031s536.195 265.378 689.409 0.031c34.94-60.512 53.335-129.156 53.335-199.031-0.249-219.723-178.308-397.781-398.031-398.031zM718.524 545.97c14.15-14.134 14.15-37.067 0-51.201l-180.923-180.923c-14.134-14.15-37.067-14.15-51.201 0l-180.923 180.923c-19.707 19.707-10.69 53.358 16.23 60.572 12.494 3.348 25.825-0.224 34.971-9.37l155.322-155.368 155.322 155.368c14.134 14.15 37.067 14.15 51.201 0z" />
<glyph unicode="&#xe9b5;" glyph-name="Caret-Circle-Left--Streamline-Phosphor" d="M512 918.4c-362.114 0-588.435-392-407.378-705.6s633.699-313.6 814.756 0c41.286 71.51 63.022 152.628 63.022 235.2-0.274 259.681-210.719 470.125-470.4 470.4zM512 49.969c-306.404-0.014-497.904 331.67-344.713 597.031s536.195 265.378 689.409 0.031c34.94-60.512 53.335-129.156 53.335-199.031-0.249-219.723-178.308-397.781-398.031-398.031zM609.97 603.322l-155.368-155.322 155.368-155.322c19.707-19.707 10.691-53.358-16.23-60.572-12.494-3.348-25.825 0.224-34.971 9.37l-180.923 180.923c-14.15 14.134-14.15 37.067 0 51.201l180.923 180.923c19.707 19.707 53.358 10.69 60.572-16.23 3.348-12.494-0.224-25.825-9.37-34.971z" />
<glyph unicode="&#xe9b6;" glyph-name="Caret-Circle-Right--Streamline-Phosphor" d="M512 918.4c-362.114 0-588.435-392-407.378-705.6s633.699-313.6 814.756 0c41.286 71.51 63.022 152.628 63.022 235.2-0.274 259.681-210.719 470.125-470.4 470.4zM512 49.969c-306.404-0.014-497.904 331.67-344.713 597.031s536.195 265.378 689.409 0.031c34.94-60.512 53.335-129.156 53.335-199.031-0.249-219.723-178.308-397.781-398.031-398.031zM646.154 473.601c14.15-14.134 14.15-37.067 0-51.201l-180.923-180.923c-19.707-19.707-53.358-10.691-60.572 16.23-3.348 12.494 0.224 25.825 9.37 34.971l155.368 155.322-155.368 155.322c-19.707 19.707-10.69 53.358 16.23 60.572 12.494 3.348 25.825-0.224 34.971-9.37z" />
<glyph unicode="&#xe9b7;" glyph-name="Caret-Circle-Up--Streamline-Phosphor" d="M512 918.4c-362.114 0-588.435-392-407.378-705.6s633.699-313.6 814.756 0c41.286 71.51 63.022 152.628 63.022 235.2-0.274 259.681-210.719 470.125-470.4 470.4zM512 49.969c-306.404-0.014-497.904 331.67-344.713 597.031s536.195 265.378 689.409 0.031c34.94-60.512 53.335-129.156 53.335-199.031-0.249-219.723-178.308-397.781-398.031-398.031zM718.524 401.231c19.707-19.707 10.691-53.358-16.23-60.572-12.494-3.348-25.825 0.224-34.971 9.37l-155.322 155.368-155.322-155.368c-19.707-19.707-53.358-10.691-60.572 16.23-3.348 12.494 0.224 25.825 9.37 34.971l180.923 180.923c14.134 14.15 37.067 14.15 51.201 0z" />
<glyph unicode="&#xe9b8;" glyph-name="Check-Square--Streamline-Phosphor" d="M735.734 593.334c15.329-15.312 15.329-40.156 0-55.468l-274.4-274.4c-15.312-15.329-40.156-15.329-55.468 0l-117.6 117.6c-21.35 21.35-11.582 57.805 17.583 65.619 13.535 3.627 27.977-0.243 37.885-10.151l89.866-89.915 246.666 246.715c15.312 15.329 40.156 15.329 55.468 0zM982.4 840v-784c0-43.301-35.1-78.402-78.4-78.4h-784c-43.3-0.002-78.4 35.1-78.4 78.4v784c0 43.299 35.101 78.4 78.4 78.4h784c43.299 0 78.4-35.101 78.4-78.4zM904 56v784h-784v-784h784z" />
<glyph unicode="&#xe9b9;" glyph-name="Clock-Afternoon--Streamline-Phosphor" d="M512 918.4c-362.114 0-588.435-392-407.378-705.6s633.699-313.6 814.756 0c41.286 71.51 63.022 152.628 63.022 235.2-0.274 259.681-210.719 470.125-470.4 470.4zM512 49.969c-306.404-0.014-497.904 331.67-344.713 597.031s536.195 265.378 689.409 0.031c34.94-60.512 53.335-129.156 53.335-199.031-0.249-219.723-178.308-397.781-398.031-398.031zM801.477 448c0-19.984-16.201-36.184-36.184-36.184h-165.952l119.183-119.138c19.707-19.707 10.691-53.358-16.23-60.572-12.494-3.348-25.825 0.224-34.971 9.37l-180.923 180.923c-19.707 19.685-10.714 53.323 16.187 60.547 3.070 0.824 6.235 1.24 9.413 1.238h253.292c19.984-0.001 36.184-16.201 36.184-36.185z" />
<glyph unicode="&#xe9ba;" glyph-name="Clock--Streamline-Phosphor" d="M512 918.4c-362.114 0-588.435-392-407.378-705.6s633.699-313.6 814.756 0c41.286 71.51 63.022 152.628 63.022 235.2-0.274 259.681-210.719 470.125-470.4 470.4zM512 49.969c-306.404-0.014-497.904 331.67-344.713 597.031s536.195 265.378 689.409 0.031c34.94-60.512 53.335-129.156 53.335-199.031-0.249-219.723-178.308-397.781-398.031-398.031zM801.477 448c0-19.984-16.201-36.184-36.184-36.184h-253.292c-19.985-0.001-36.185 16.2-36.185 36.185v253.292c0 27.855 30.154 45.264 54.277 31.337 11.196-6.464 18.092-18.409 18.092-31.337v-217.108h217.108c19.984-0.001 36.184-16.201 36.184-36.185z" />
<glyph unicode="&#xe9bb;" glyph-name="Confetti--Streamline-Phosphor" d="M450.087 730.637c-10.717 10.689-25.507 17.299-41.841 17.299-25.433 0-47.123-16.024-55.525-38.527l-0.134-0.409-196.837-541.425c-2.247-6.013-3.548-12.962-3.548-20.214 0-32.622 26.313-59.097 58.873-59.361h0.025c7.366 0.052 14.396 1.423 20.887 3.887l-0.412-0.137 541.388 196.875c22.927 8.528 38.964 30.226 38.964 55.669 0 16.329-6.606 31.115-17.29 41.832l0.001-0.001zM418.85 223.6l-131.25 131.25 49.35 135.788 217.688-217.688zM212.6 148.6l52.5 144.038 91.688-91.688zM617 295.6l-257.4 257.4 48.75 134.512 342.863-342.863zM632 658c0.612 21.374 5.861 41.383 14.771 59.247l-0.371-0.822c19.875 39.713 57.375 61.575 105.6 61.575 25.125 0 41.25 8.588 51.188 27.037 4.999 9.65 8.185 20.979 8.804 32.987l0.008 0.2c0.064 16.52 13.471 29.888 30 29.888 16.569 0 30-13.432 30-30 0-0.040 0-0.079 0-0.119v0.006c0-48.225-31.95-120-120-120-25.125 0-41.25-8.588-51.188-27.038-4.999-9.65-8.185-20.979-8.804-32.987l-0.008-0.2c-0.064-16.52-13.471-29.888-30-29.888-16.569 0-30 13.432-30 30 0 0.040 0 0.079 0 0.119v-0.006zM542 778v90c0 16.569 13.431 30 30 30s30-13.431 30-30v0-90c0-16.569-13.431-30-30-30s-30 13.431-30 30v0zM923.225 469.225c5.424-5.429 8.778-12.926 8.778-21.206 0-16.57-13.433-30.003-30.003-30.003-8.29 0-15.795 3.362-21.225 8.797l-60 60c-5.432 5.432-8.792 12.936-8.792 21.225 0 16.578 13.439 30.017 30.017 30.017 8.289 0 15.793-3.36 21.225-8.792v0zM941.487 629.537l-90-30c-2.831-0.976-6.093-1.54-9.487-1.54-16.57 0-30.002 13.432-30.002 30.002 0 13.176 8.493 24.368 20.303 28.4l0.211 0.063 90 30c2.831 0.976 6.093 1.54 9.487 1.54 16.57 0 30.002-13.432 30.002-30.002 0-13.176-8.493-24.368-20.303-28.4l-0.211-0.063z" />
<glyph unicode="&#xe9bc;" glyph-name="File-Jpg--Streamline-Phosphor" d="M502.2 330.4h-78.4c-21.65 0.001-39.2-17.55-39.2-39.2v-274.4c0-30.176 32.667-49.036 58.8-33.948 12.128 7.002 19.6 19.943 19.6 33.948v39.2h39.2c105.616 0.055 171.567 114.423 118.711 205.862-24.505 42.393-69.745 68.513-118.711 68.538zM502.2 134.4h-39.2v117.6h39.2c45.264 0 73.554-49 50.922-88.2-10.503-18.193-29.915-29.4-50.922-29.4zM972.6 134.4v-82.663c-0.001-10.096-3.898-19.803-10.878-27.097-27.587-29.696-66.191-46.712-106.722-47.040-86.485 0-156.8 79.135-156.8 176.4s70.315 176.4 156.8 176.4c28.822-0.091 56.953-8.831 80.752-25.088 25.009-16.974 22.264-54.655-4.94-67.827-12.625-6.112-27.553-5.025-39.16 2.853-10.754 7.511-23.535 11.578-36.652 11.662-43.218 0-78.4-44.1-78.4-98s35.182-98 78.4-98c14.143 0.164 27.869 4.813 39.2 13.279v25.921c-30.176-0.001-49.036 32.664-33.949 58.798 7.002 12.129 19.944 19.602 33.949 19.602h39.2c21.649-0.001 39.2-17.551 39.2-39.2zM306.2 291.2v-186.2c0-98.072-106.167-159.368-191.1-110.331-39.418 22.758-63.7 64.816-63.7 110.331 0 30.176 32.667 49.037 58.8 33.948 12.129-7.002 19.6-19.943 19.6-33.948 0.033-37.72 40.887-61.26 73.537-42.371 15.126 8.751 24.448 24.895 24.463 42.371v186.2c0 30.176 32.667 49.036 58.8 33.948 12.129-7.002 19.6-19.943 19.6-33.948zM961.134 632.534l-274.4 274.4c-7.357 7.35-17.334 11.474-27.734 11.466h-470.4c-43.3 0.002-78.4-35.1-78.4-78.4v-352.8c0-30.176 32.667-49.036 58.8-33.948 12.129 7.002 19.6 19.943 19.6 33.948v352.8h431.2v-235.2c0-21.65 17.55-39.201 39.2-39.2h235.2v-78.4c0-30.176 32.667-49.036 58.8-33.948 12.129 7.002 19.6 19.943 19.6 33.948v117.6c0.008 10.4-4.117 20.376-11.466 27.734zM698.2 644v140.581l140.581-140.581z" />
<glyph unicode="&#xe9bd;" glyph-name="File-Png--Streamline-Phosphor" d="M169 330.4h-78.4c-21.65 0.001-39.2-17.55-39.2-39.2v-274.4c0-30.176 32.667-49.037 58.8-33.948 12.129 7.002 19.6 19.943 19.6 33.948v39.2h39.2c105.617 0.005 171.628 114.341 118.816 205.805-24.508 42.445-69.803 68.592-118.816 68.595zM169 134.4h-39.2v117.6h39.2c45.264 0 73.555-49 50.922-88.2-10.503-18.193-29.915-29.4-50.922-29.4zM972.6 51.737c-0.001-10.096-3.898-19.803-10.878-27.097-27.587-29.696-66.191-46.712-106.722-47.040-86.485 0-156.8 79.135-156.8 176.4s70.315 176.4 156.8 176.4c28.813-0.097 56.938-8.818 80.752-25.039 25.028-16.974 22.294-54.676-4.919-67.863-12.63-6.12-27.566-5.037-39.181 2.84-10.754 7.511-23.535 11.578-36.652 11.662-43.218 0-78.4-44.1-78.4-98s35.182-98 78.4-98c14.152 0.158 27.885 4.827 39.2 13.328v25.872c-30.176 0.001-49.037 32.669-33.947 58.802 7.002 12.127 19.944 19.598 33.947 19.599h39.2c21.649-0.001 39.2-17.551 39.2-39.2zM639.4 291.2v-274.4c0.003-17.046-11.010-32.139-27.244-37.338-3.863-1.243-7.898-1.871-11.956-1.862-12.66 0-24.54 6.113-31.899 16.415l-124.901 174.685v-151.9c0-30.176-32.667-49.037-58.8-33.948-12.129 7.002-19.6 19.943-19.6 33.948v274.4c-0.001 30.176 32.665 49.037 58.799 33.95 4.851-2.801 9.045-6.607 12.3-11.165l124.901-174.685v151.9c0 30.176 32.667 49.036 58.8 33.948 12.128-7.002 19.6-19.943 19.6-33.948zM110.2 448c21.65-0.001 39.2 17.55 39.2 39.2v352.8h431.2v-235.2c0-21.65 17.55-39.201 39.2-39.2h235.2v-78.4c0-30.176 32.667-49.036 58.8-33.948 12.129 7.002 19.6 19.943 19.6 33.948v117.6c0.008 10.4-4.116 20.376-11.466 27.734l-274.4 274.4c-7.358 7.35-17.334 11.474-27.734 11.466h-470.4c-43.299 0-78.4-35.101-78.4-78.4v-352.8c0-21.65 17.55-39.201 39.2-39.2zM659 784.581l140.581-140.581h-140.581z" />
<glyph unicode="&#xe9be;" glyph-name="Image--Streamline-Phosphor" d="M910.031 846.031h-796.061c-39.97 0.002-72.369-32.399-72.369-72.369v-651.323c0-39.969 32.4-72.371 72.369-72.369h796.061c39.967 0.001 72.369 32.402 72.369 72.369v651.323c0 39.968-32.401 72.369-72.369 72.369zM910.031 773.662v-464.746l-117.917 117.871c-28.263 28.27-74.094 28.27-102.357 0l-90.461-90.461-199.015 199.015c-28.258 28.24-74.054 28.24-102.312 0l-183.999-183.999v422.32zM113.969 248.985l235.2 235.2 361.846-361.846h-597.046zM910.031 122.338h-96.658l-162.831 162.831 90.462 90.461 169.027-169.072v-84.22zM584.369 574.646c0 41.782 45.231 67.896 81.415 47.005s36.185-73.119 0-94.010c-8.251-4.764-17.611-7.272-27.138-7.272-29.977-0.002-54.277 24.3-54.277 54.277z" />
<glyph unicode="&#xe9bf;" glyph-name="Mouse-Left-Click--Streamline-Phosphor" d="M579.2 918.4h-134.4c-148.387-0.162-268.638-120.413-268.8-268.8v-403.2c0.162-148.387 120.413-268.638 268.8-268.8h134.4c148.387 0.162 268.638 120.413 268.8 268.8v403.2c-0.162 148.387-120.413 268.638-268.8 268.8zM780.8 649.6v-100.8h-235.2v302.4h33.6c111.293-0.116 201.484-90.308 201.6-201.6zM458.702 548.8l-193.2 193.2c11.81 22.624 27.767 42.827 47.040 59.556l165.858-165.858v-86.898zM243.2 649.6c0 6.342 0.336 12.6 0.924 18.774l119.574-119.574h-120.498zM478.4 851.2v-120.498l-106.722 106.722c23.301 9.115 48.102 13.787 73.122 13.776zM579.2 44.8h-134.4c-111.293 0.116-201.484 90.308-201.6 201.6v235.2h537.6v-235.2c-0.116-111.293-90.308-201.484-201.6-201.6z" />
<glyph unicode="&#xe9c0;" glyph-name="Mouse-Right-Click--Streamline-Phosphor" d="M579.2 918.4h-134.4c-148.387-0.162-268.638-120.413-268.8-268.8v-403.2c0.162-148.387 120.413-268.638 268.8-268.8h134.4c148.387 0.162 268.638 120.413 268.8 268.8v403.2c-0.162 148.387-120.413 268.638-268.8 268.8zM545.6 635.698l165.858 165.858c19.228-16.741 35.142-36.943 46.914-59.556l-193.2-193.2h-19.572zM779.876 668.374c0.588-6.174 0.924-12.6 0.924-18.774v-100.8h-120.498zM652.322 837.424l-106.722-106.722v120.498h33.6c25.020 0.011 49.821-4.661 73.122-13.776zM444.8 851.2h33.6v-302.4h-235.2v100.8c0.116 111.293 90.308 201.484 201.6 201.6zM579.2 44.8h-134.4c-111.293 0.116-201.484 90.308-201.6 201.6v235.2h537.6v-235.2c-0.116-111.293-90.308-201.484-201.6-201.6z" />
<glyph unicode="&#xe9c1;" glyph-name="Arrow-Bend-Down-Left-Light--Streamline-Phosphor" d="M982.4 780.401c-0.305-259.675-210.737-470.107-470.412-470.412h-375.915l174.099-174.145c15.584-14.522 9.603-40.468-10.765-46.704-10.123-3.099-21.127-0.15-28.344 7.595l-221.37 221.371c-10.79 10.803-10.79 28.305 0 39.109l221.37 221.37c15.584 14.522 41.045 6.728 45.829-14.029 2.064-8.957-0.454-18.355-6.72-25.080l-174.099-174.145h375.915c229.131 0.254 414.815 185.938 415.070 415.070 0 21.302 23.059 34.615 41.507 23.964 8.562-4.943 13.836-14.078 13.836-23.964z" />
<glyph unicode="&#xe9c2;" glyph-name="Arrow-Bend-Down-Right-Light--Streamline-Phosphor" d="M974.308 317.415l-221.37-221.37c-15.584-14.522-41.044-6.728-45.829 14.029-2.064 8.957 0.454 18.355 6.72 25.080l174.099 174.145h-375.915c-259.675 0.305-470.108 210.737-470.412 470.412 0 21.302 23.060 34.615 41.507 23.964 8.562-4.943 13.836-14.078 13.836-23.964 0.254-229.131 185.938-414.815 415.070-415.069h375.915l-174.099 174.145c-14.522 15.584-6.728 41.044 14.029 45.829 8.957 2.064 18.355-0.454 25.080-6.72l221.37-221.37c10.79-10.803 10.79-28.305 0-39.109z" />
<glyph unicode="&#xe9c3;" glyph-name="Arrow-Circle-Down-Left-Light--Streamline-Phosphor" d="M512 918.4c-362.114 0.016-588.432-391.974-407.389-705.582s633.686-313.629 814.757-0.037c41.293 71.514 63.032 152.639 63.032 235.218-0.305 259.668-210.732 470.095-470.4 470.4zM512 32.941c-319.512-0.015-519.205 345.859-359.461 622.572s559.134 276.731 718.903 0.032c36.435-63.101 55.617-134.681 55.617-207.546-0.254-229.125-185.934-414.804-415.059-415.059zM679.13 615.13c10.79-10.803 10.79-28.305 0-39.108l-247.883-247.929h154.54c21.301 0 34.614-23.059 23.963-41.506-4.943-8.562-14.077-13.835-23.963-13.835h-221.365c-15.283-0.001-27.671 12.388-27.671 27.67v221.365c0 21.301 23.059 34.614 41.506 23.963 8.561-4.943 13.835-14.077 13.835-23.963v-154.54l247.929 247.883c10.803 10.79 28.304 10.79 39.108 0z" />
<glyph unicode="&#xe9c4;" glyph-name="Arrow-Circle-Down-Light--Streamline-Phosphor" d="M512 918.4c-362.114 0.016-588.432-391.974-407.389-705.582s633.686-313.629 814.757-0.037c41.293 71.514 63.032 152.639 63.032 235.218-0.305 259.668-210.732 470.095-470.4 470.4zM512 32.941c-319.512-0.015-519.205 345.859-359.461 622.572s559.134 276.731 718.903 0.032c36.435-63.101 55.617-134.681 55.617-207.546-0.254-229.125-185.934-414.804-415.059-415.059zM679.13 430.66c10.79-10.803 10.79-28.304 0-39.108l-147.576-147.576c-10.803-10.79-28.305-10.79-39.108 0l-147.576 147.576c-14.522 15.583-6.728 41.043 14.029 45.828 8.957 2.064 18.354-0.453 25.079-6.72l100.352-100.306v302.117c0 21.301 23.059 34.614 41.506 23.963 8.561-4.943 13.835-14.077 13.835-23.963v-302.117l100.352 100.306c10.803 10.79 28.304 10.79 39.108 0z" />
<glyph unicode="&#xe9c5;" glyph-name="Arrow-Circle-Down-Right-Light--Streamline-Phosphor" d="M512 918.4c-362.114 0.016-588.432-391.974-407.389-705.582s633.686-313.629 814.757-0.037c41.293 71.514 63.032 152.639 63.032 235.218-0.305 259.668-210.732 470.095-470.4 470.4zM512 32.941c-319.512-0.015-519.205 345.859-359.461 622.572s559.134 276.731 718.903 0.032c36.435-63.101 55.617-134.681 55.617-207.546-0.254-229.125-185.934-414.804-415.059-415.059zM687.247 521.788v-221.365c0-15.282-12.389-27.67-27.67-27.67h-221.365c-21.301 0-34.614 23.059-23.963 41.506 4.943 8.561 14.077 13.835 23.963 13.835h154.541l-247.883 247.929c-14.522 15.584-6.728 41.043 14.029 45.828 8.957 2.064 18.354-0.454 25.079-6.72l247.929-247.883v154.541c0 21.301 23.059 34.614 41.506 23.963 8.562-4.943 13.835-14.077 13.835-23.963z" />
<glyph unicode="&#xe9c6;" glyph-name="Arrow-Circle-Left-Light--Streamline-Phosphor" d="M512 918.4c-362.114 0.016-588.432-391.974-407.389-705.582s633.686-313.629 814.757-0.037c41.293 71.514 63.032 152.639 63.032 235.218-0.305 259.668-210.732 470.095-470.4 470.4zM512 32.941c-319.512-0.015-519.205 345.859-359.461 622.572s559.134 276.731 718.903 0.032c36.435-63.101 55.617-134.681 55.617-207.546-0.254-229.125-185.934-414.804-415.059-415.059zM724.141 448c0-15.282-12.389-27.67-27.67-27.67h-302.117l100.306-100.352c15.584-14.522 9.603-40.467-10.764-46.702-10.123-3.099-21.126-0.15-28.343 7.595l-147.576 147.576c-10.79 10.803-10.79 28.305 0 39.108l147.576 147.576c15.584 14.522 41.043 6.728 45.828-14.029 2.065-8.957-0.453-18.354-6.72-25.079l-100.306-100.352h302.117c15.281-0.001 27.67-12.389 27.67-27.671z" />
<glyph unicode="&#xe9c7;" glyph-name="Arrow-Circle-Right-Light--Streamline-Phosphor" d="M512 918.4c-362.114 0.016-588.432-391.974-407.389-705.582s633.686-313.629 814.757-0.037c41.293 71.514 63.032 152.639 63.032 235.218-0.305 259.668-210.732 470.095-470.4 470.4zM512 32.941c-319.512-0.015-519.205 345.859-359.461 622.572s559.134 276.731 718.903 0.032c36.435-63.101 55.617-134.681 55.617-207.546-0.254-229.125-185.934-414.804-415.059-415.059zM716.024 467.554c10.79-10.803 10.79-28.305 0-39.108l-147.576-147.576c-15.583-14.521-41.043-6.728-45.828 14.029-2.064 8.957 0.453 18.354 6.72 25.079l100.306 100.352h-302.117c-21.301 0-34.614 23.059-23.963 41.506 4.943 8.561 14.077 13.835 23.963 13.835h302.117l-100.306 100.352c-14.522 15.584-6.728 41.043 14.029 45.828 8.957 2.064 18.354-0.454 25.079-6.72z" />
<glyph unicode="&#xe9c8;" glyph-name="Arrow-Circle-Up-Left-Light--Streamline-Phosphor" d="M512 918.4c-362.114 0.016-588.432-391.974-407.389-705.582s633.686-313.629 814.757-0.037c41.293 71.514 63.032 152.639 63.032 235.218-0.305 259.668-210.732 470.095-470.4 470.4zM512 32.941c-319.512-0.015-519.205 345.859-359.461 622.572s559.134 276.731 718.903 0.032c36.435-63.101 55.617-134.681 55.617-207.546-0.254-229.125-185.934-414.804-415.059-415.059zM679.13 319.978c15.583-14.522 9.603-40.467-10.765-46.702-10.122-3.099-21.126-0.15-28.343 7.595l-247.928 247.883v-154.54c0-21.301-23.059-34.614-41.506-23.963-8.562 4.943-13.836 14.077-13.836 23.963v221.365c0 15.282 12.389 27.671 27.671 27.671h221.365c21.301 0 34.614-23.059 23.963-41.506-4.942-8.561-14.078-13.835-23.963-13.835h-154.541z" />
<glyph unicode="&#xe9c9;" glyph-name="Arrow-Circle-Up-Light--Streamline-Phosphor" d="M512 918.4c-362.114 0.016-588.432-391.974-407.389-705.582s633.686-313.629 814.757-0.037c41.293 71.514 63.032 152.639 63.032 235.218-0.305 259.668-210.732 470.095-470.4 470.4zM512 32.941c-319.512-0.015-519.205 345.859-359.461 622.572s559.134 276.731 718.903 0.032c36.435-63.101 55.617-134.681 55.617-207.546-0.254-229.125-185.934-414.804-415.059-415.059zM679.13 504.448c15.583-14.522 9.603-40.467-10.765-46.702-10.122-3.099-21.126-0.151-28.343 7.594l-100.352 100.306v-302.117c0-21.301-23.059-34.614-41.506-23.963-8.561 4.943-13.835 14.077-13.835 23.963v302.117l-100.352-100.306c-15.584-14.522-41.043-6.728-45.828 14.029-2.064 8.957 0.454 18.354 6.72 25.079l147.576 147.576c10.803 10.79 28.305 10.79 39.108 0z" />
</font>
</defs>
</svg>
